<?xml version="1.0" encoding="UTF-8"?>
<svg id="Layer_1" data-name="Layer 1" xmlns="http://www.w3.org/2000/svg" viewBox="0 0 2000 2000">
  <defs>
    <style>
      .cls-1 {
        fill: none;
      }

      .cls-2 {
        fill: #db7f53;
      }

      .cls-3 {
        fill: #ecbb25;
      }

      .cls-4 {
        fill: #f8f3ee;
      }

      .cls-5 {
        fill: #14869d;
      }

      .cls-6 {
        fill: #df442a;
      }

      .cls-7 {
        fill: #136a8b;
      }

      .cls-8 {
        fill: #1d99a9;
      }

      .cls-9 {
        fill: #e14e26;
      }

      .cls-10 {
        fill: #f7f5f4;
      }

      .cls-11 {
        fill: #42413a;
      }

      .cls-12 {
        fill: #ecbe62;
      }

      .cls-13 {
        fill: #f6f4f1;
      }

      .cls-14, .cls-15 {
        fill: #fff;
      }

      .cls-16 {
        fill: #49b8bd;
      }

      .cls-17 {
        fill: #0f4c5f;
      }

      .cls-18 {
        fill: #c63f27;
      }

      .cls-19 {
        fill: #2d2112;
      }

      .cls-20 {
        fill: #f9f9f7;
      }

      .cls-21 {
        fill: #403a2e;
      }

      .cls-22 {
        fill: #6b3619;
      }

      .cls-23 {
        fill: #63c5d2;
      }

      .cls-24 {
        fill: #f3a679;
      }

      .cls-25 {
        fill: #62bb46;
      }

      .cls-26 {
        fill: #da7d51;
      }

      .cls-27 {
        fill: #f2a67a;
      }

      .cls-15 {
        font-family: Futura-Medium, Futura;
        font-size: 174.09px;
        font-weight: 500;
      }

      .cls-28 {
        fill: #d73326;
      }

      .cls-29 {
        letter-spacing: 0em;
      }

      .cls-30 {
        fill: #165e77;
      }

      .cls-31 {
        fill: #f3bd8a;
      }

      .cls-32 {
        fill: #1d5e69;
      }

      .cls-33 {
        fill: #da423f;
      }

      .cls-34 {
        fill: #c52f27;
      }

      .cls-35 {
        letter-spacing: .04em;
      }

      .cls-36 {
        letter-spacing: .03em;
      }

      .cls-37 {
        letter-spacing: 0em;
      }

      .cls-38 {
        fill: #1c6575;
      }
    </style>
  </defs>
  <g id="KslqMz">
    <g>
      <g>
        <path class="cls-25" d="M1226.25,1872.38c-35.72,0-66.01-5.67-81.03-15.17-14.7-9.29-21.47-23.15-20.13-41.18,1.03-13.96,6.78-28.34,11.84-41.03,2.64-6.61,5.13-12.85,6.53-18,2.19-8.06,3.04-18.87,3.87-29.33.69-8.79,1.36-17.26,2.79-24.69h-194.81c.17,1.54.33,3.07.49,4.58.96,8.97,1.86,17.45,3.4,23.2.72,2.68,2.04,5.36,3.44,8.19,3.33,6.72,7.47,15.08,5.44,27.23-5.67,33.95-51.19,38.13-81.31,40.89-7.26.67-14.12,1.29-18.78,2.19-9.63,1.85-19.34,5.78-29.62,9.94-7.01,2.84-14.26,5.77-21.56,8.02-20.35,6.26-45.5,9.71-70.82,9.71-33.61,0-63.9-6.1-85.29-17.19-20.81-10.79-30.75-21.34-27.27-49.11,4.31-34.44,30.59-44.64,53.78-53.65,5.38-2.09,10.94-4.25,16.08-6.65,5.03-2.35,9.96-4.79,14.9-7.35h-243.21c-33.08,0-60-26.92-60-60v-344c0-33.08,26.92-60,60-60h298.51l8.12-44.44c-3.83-2.51-10.99-7.54-10.99-17.53v-.59s13.9-116.85,13.9-116.85l3.99-121.19c-4.82,3.08-9.79,6.21-14.94,9.07l-2.01,1.12c-8.72,4.86-16.95,9.45-27.79,9.45-3.2,0-6.47-.4-9.9-1.21-1.05.71-2.1,1.43-3.17,2.16-30.07,20.51-67.49,46.05-105.54,46.05-19.24,0-36.89-6.57-52.45-19.54-56.13-46.75-63.35-147.9-37.85-214.81,11.76-30.85,32.08-45.39,51.74-59.45,13.22-9.45,25.7-18.38,35.6-32.22,11.79-16.48,11.62-22.77,11.12-41.46-.06-2.42-.13-5.01-.18-7.79-.13-7.69,2.41-14.41,7.35-19.43,5.58-5.67,13.92-8.8,23.48-8.8,8.76,0,17.57,2.63,24.17,7.23,13.79,9.6,20.96,26.73,20.74,49.52-.12,12.49-2.62,26.33-6.77,38.42l58.57,12.05c7.06-5.65,13.88-11.67,21.06-18.02,15.07-13.32,30.65-27.09,48.7-37.15,28.08-15.66,60.28-20.87,91.42-25.91,2.51-.41,5-.81,7.46-1.21-10.12-5.87-19.34-13.9-27.8-24.19-13.42-16.32-23.15-36.39-30.89-53.88-13.78-31.11-28.9-72.17-23.52-113.94.34-2.61,1.2-6.09,2.11-9.77.58-2.33,1.47-5.93,1.83-8.01-.48-.93-1.12-2.11-1.6-3.01-2.41-4.47-4.05-7.6-4.92-10.25-3.59-11.01-5.31-25.96-4.62-39.97.13-2.67.76-5.8,1.36-8.82.23-1.16.56-2.8.78-4.12-2.91-2.87-7.67-8.34-6.74-18.6,1.29-14.13,11.57-20,21.77-22.57-15.73-6.88-33.37-17.08-46.56-31.64-18.68-20.61-24.1-45.51-15.69-72,9.06-28.55,39.76-55.93,71.4-63.7,8.77-2.15,17.82-3.2,27.64-3.2,23.9,0,47.22,6.28,69.77,12.36,2.39.65,4.78,1.29,7.15,1.92,27.49-12.84,59.07-19.6,91.6-19.6,40.41,0,81.36,10.59,115.32,29.83,36.83,20.86,64.51,50.89,80.04,86.82,21.39,49.51,20.62,103.06-2.28,159.28,10.9,10.22,16.69,23.81,16.83,39.67.27,30.91-20.71,63.29-41.57,79.3-15.99,12.27-32.86,18.49-50.14,18.49-4.11,0-8.28-.35-12.46-1.05-1.92,3-3.9,5.63-5.73,8.06-3.78,5.01-7.04,9.34-8.97,15.72-3.66,12.04-5.29,25.78-4.73,39.32,11.36,3.55,22.94,6.93,34.2,10.21,29.58,8.63,60.18,17.54,89.09,30.25,42.45,18.66,73.52,52.33,103.56,84.9,7.92,8.59,16.12,17.47,24.29,25.8,3.94,4.02,9.75,9.18,15.9,14.65,12.69,11.29,25.82,22.96,32.08,32.53,5.21,7.97,5.67,17.68,1.84,25.77,3.47,3.5,6.99,7.01,10.43,10.44,19.13,19.05,38.91,38.75,53.94,61.49,16.55,25.04,22.49,53.45,16.29,77.94-5.42,21.41-19.56,38.75-40.87,50.13-18.92,10.1-43.17,15.01-74.15,15.01-17,0-34.38-1.46-47.07-2.52-3.78-.32-7.9-1.08-11.88-1.81-4.31-.79-8.76-1.62-11.72-1.65h-.13c-2.2,0-4.9.62-8.03,1.34-4.32.99-9.7,2.22-15.94,2.22-.96,0-1.93-.03-2.88-.09-4.28-.26-10.41-1.78-16.89-3.39-2.95-.73-7.1-1.76-9.46-2.19-.42.29-.88.62-1.24.89-1.52,1.1-3.1,2.24-4.88,3.12-10.17,5.06-21.22,9.81-33.85,11.42-.16,34.67,2.11,69.79,4.31,103.84.52,8.04,1.04,16.07,1.53,24.11l.08,1.25-.23,1.23c-2.07,10.9-15.15,15.29-26.12,18.71.25,3.21.8,8.38,1.93,16.71.1.72.18,1.3.23,1.71.64,4.94,1.41,10.18,2.35,16.11h271.58c33.08,0,60,26.92,60,60v344c0,33.08-26.92,60-60,60h-206.63c.31,1.63.61,3.26.9,4.87,1.41,7.69,2.75,14.95,4.89,22.04,2.23,7.38,5.93,15.96,9.85,25.04,7.2,16.67,15.36,35.57,16.83,53.32,1.86,22.44-7.17,39.38-26.84,50.36-15.43,8.62-45.24,13.76-79.74,13.76Z"/>
        <path class="cls-14" d="M1062.4,143.42c77,0,155.33,39.21,186.18,110.62,22.64,52.41,17.53,105.88-4.8,157.34l.5,1.64c37.25,27.56,9.82,84.78-19.63,107.37-13.53,10.38-28.12,16.43-44.05,16.43-5.67,0-11.52-.77-17.54-2.38-6.06,12.53-14.95,18.21-19.19,32.2-4.77,15.71-6.22,33.38-4.67,49.7,42.9,13.8,87.43,23.97,128.78,42.14,51.63,22.69,86.22,69.29,124.74,108.55,11.99,12.22,38.26,32.66,46.75,45.64,4.61,7.05,3.32,15.84-2.8,21.31,23.5,24.24,50.33,48.12,69.05,76.44,26.4,39.94,24.16,89.64-20.96,113.74-20.28,10.83-44.96,13.83-69.44,13.83-15.92,0-31.76-1.27-46.24-2.48-7.42-.62-17.46-3.42-24.31-3.5-.08,0-.17,0-.25,0-7.17,0-14.43,3.56-23.97,3.56-.74,0-1.5-.02-2.27-.07-6.64-.4-23.52-5.8-28.25-5.8-.21,0-.39.01-.55.03-2.38.32-6.09,3.91-8.73,5.22-12.3,6.12-24.46,10.95-38.45,10.95-.28,0-.56,0-.84,0-.82,46.12,2.95,92.04,5.75,137.98-1.31,6.88-19.78,10.79-25.85,13.18-1.93,1.35,1.27,23.09,1.79,27.1,1.05,8.07,2.35,16.38,3.77,24.82h280.08c27.61,0,50,22.39,50,50v344c0,27.61-22.39,50-50,50h-218.97c3.22,13.07,4.59,26.64,8.56,39.8,10.81,35.83,51.1,91.11,4.54,117.1-14.71,8.21-44.77,12.49-74.86,12.49s-61.14-4.42-75.69-13.62c-33.08-20.92-4.51-63.22,2.55-89.13,5.2-19.1,3.33-48.56,9.24-63.52.41-1.03,1.1-2.08,1.87-3.12h-220.21c2.05,14.75,2.84,30.32,5.52,40.37,2.85,10.67,10.96,17.57,8.68,31.19-5.59,33.5-68.02,30.26-92.12,34.91-17.64,3.4-35.01,12.92-52.23,18.22-19.13,5.89-43.38,9.27-67.88,9.27-29.35,0-59.05-4.85-80.68-16.07-18.75-9.72-24.67-17.22-21.95-38.99,4.46-35.65,36.98-39.8,64.16-52.48,16.93-7.9,33.18-17.13,49.38-26.41h-281.92c-27.61,0-50-22.39-50-50v-344c0-27.61,22.39-50,50-50h306.85l10.43-57.06c-.04-5.42-11.64-6.09-11.64-14.91l13.88-116.69,4.62-140.3c-10.28,5.9-20.02,12.93-30.39,18.68-9.25,5.12-16.06,9.32-24.96,9.32-3.47,0-7.27-.64-11.65-2.11-30.61,20.71-69.14,49.11-106.96,49.11-15.68,0-31.24-4.89-46.05-17.22-53.62-44.66-58.2-142.44-34.91-203.57,18.31-48.04,60.04-52.95,86.13-89.41,15.46-21.6,13.22-30.47,12.8-55.24-.21-12.73,9.94-18.07,20.83-18.07,6.6,0,13.47,1.96,18.46,5.44,24.54,17.09,17.4,63.8,5.85,87.1l73.4,15.09,3.46-1.17c23.22-18.27,44.26-41.22,70.2-55.68,36.86-20.55,82.46-22.27,123.13-31.05l-.07-4.42c-42.17-8.51-62.63-46.45-78.6-82.5-14.99-33.85-27.58-71.13-22.75-108.61.65-5.02,4.57-17.34,4.15-20.81-.19-1.56-5.91-10.83-7.14-14.61-3.56-10.93-4.71-24.88-4.14-36.38.22-4.35,2.69-12.6,2.37-16.1-.39-4.15-7.91-4.93-6.99-15.04,1.28-14.06,18.12-15.03,28.9-15.6l1.12-11.48c-42.09-14.63-87.22-45.7-70.93-97.02,8.42-26.51,37.7-50.49,64.25-57.01,8.36-2.05,16.8-2.91,25.26-2.91,26.31,0,52.81,8.32,77.92,14.89,27.75-13.64,59.05-20.21,90.6-20.21M1062.4,123.42h0c-32.67,0-64.47,6.56-92.48,19.02-1.2-.32-2.42-.65-3.67-.99-23.18-6.25-47.14-12.71-72.37-12.71-10.49,0-20.6,1.17-30.03,3.49-16.22,3.98-33,12.97-47.25,25.31-10.69,9.25-24.79,24.59-31.3,45.07-9.55,30.08-3.39,58.35,17.81,81.75,9.42,10.39,20.82,18.7,32.3,25.25-5.77,5.59-9.29,12.91-10.06,21.34-.97,10.6,2.54,17.84,5.96,22.42-.63,3.15-1.24,6.38-1.4,9.54-.77,15.4,1.09,31.28,5.1,43.57,1.1,3.38,2.89,6.83,5.49,11.65-.33,1.43-.71,2.96-1,4.12-.98,3.97-1.91,7.72-2.32,10.9-5.7,44.23,9.99,86.97,24.3,119.27,8.02,18.1,18.13,38.93,32.31,56.18,3.49,4.24,7.14,8.16,10.95,11.74-27.03,4.63-54.32,10.63-79.17,24.49-18.99,10.59-34.98,24.72-50.45,38.39-5.84,5.16-11.44,10.11-17.07,14.77l-43.25-8.89c2.54-10.09,3.98-20.69,4.07-30.73.11-11.38-1.5-21.71-4.77-30.71-4.21-11.56-11.02-20.69-20.25-27.11-8.23-5.73-19.13-9.02-29.89-9.02-12.26,0-23.13,4.19-30.61,11.79-6.86,6.98-10.39,16.18-10.22,26.61.05,2.84.12,5.41.18,7.89.48,17.91.58,21.63-9.26,35.38-8.94,12.49-20.76,20.95-33.29,29.91-19.89,14.23-42.44,30.35-55.26,64.02-13.22,34.69-17.79,77.58-12.53,117.68,2.85,21.74,8.44,41.72,16.63,59.37,9.25,19.94,21.59,36.43,36.7,49.01,17.41,14.5,37.21,21.86,58.85,21.86,41.02,0,79.74-26.34,110.9-47.6,2.6.4,5.16.6,7.71.6,13.44,0,23.21-5.45,32.66-10.71.49-.27.98-.55,1.48-.83l-3.37,102.34-13.78,115.84-.14,1.18v1.19c0,10.65,5.28,17.55,10.05,21.79l-5.52,30.18h-290.17c-38.6,0-70,31.4-70,70v344c0,38.6,31.4,70,70,70h195.41c-7.89,3.42-15.63,7.41-22.67,12.91-13.8,10.79-21.95,25.42-24.21,43.49-1.32,10.56-1.88,24.28,5.61,36.78,6.47,10.8,16.79,17.17,26.98,22.45,22.78,11.81,54.71,18.31,89.89,18.31,26.3,0,52.49-3.61,73.76-10.16,7.71-2.37,15.16-5.39,22.37-8.3,9.82-3.97,19.09-7.72,27.76-9.39,4.18-.8,10.79-1.41,17.8-2.05,14.89-1.36,33.41-3.06,49.52-8.27,29.63-9.58,38.51-27.55,40.74-40.93,2.56-15.34-2.8-26.15-6.35-33.31-1.22-2.47-2.28-4.61-2.74-6.33-.99-3.72-1.73-9.14-2.41-15.2h172.14c-.48,4.5-.85,9.16-1.22,13.91-.79,10-1.6,20.33-3.54,27.48-1.25,4.6-3.64,10.58-6.17,16.91-5.33,13.36-11.38,28.5-12.53,44-2.03,27.41,12.34,42.52,24.76,50.37,23.86,15.08,68.35,16.71,86.38,16.71s60.31-1.46,84.61-15.03c23.07-12.88,34.12-33.6,31.93-59.92-1.61-19.39-10.11-39.08-17.62-56.46-3.8-8.81-7.4-17.13-9.46-23.96-1.35-4.48-2.38-9.15-3.33-14.02h194.59c38.6,0,70-31.4,70-70v-344c0-38.6-31.4-70-70-70h-262.99c-.37-2.57-.71-5.02-1.02-7.4-.05-.42-.14-1.03-.24-1.78-.45-3.32-.8-6.09-1.08-8.39,10.88-4,22.65-10.45,25.19-23.79l.47-2.46-.15-2.5c-.49-8.06-1.02-16.23-1.53-24.13-2.01-31.15-4.08-63.21-4.28-94.86,10.37-2.42,19.65-6.52,28.3-10.82,1.41-.7,2.69-1.49,3.84-2.26,1.65.39,3.43.83,4.88,1.19,8.16,2.02,13.86,3.37,18.7,3.66,1.15.07,2.32.1,3.48.1,7.37,0,13.36-1.37,18.17-2.47,2.22-.51,4.73-1.08,5.8-1.08,2.12.02,6.51.84,10.04,1.49,4.22.78,8.58,1.59,12.86,1.94,12.87,1.08,30.49,2.55,47.91,2.55,32.66,0,58.46-5.3,78.86-16.19,23.87-12.74,39.72-32.28,45.86-56.49,6.89-27.22.47-58.53-17.64-85.91-15.59-23.59-35.74-43.66-55.23-63.06-2.03-2.02-4.02-4.01-5.99-5.97,2.33-9.5.77-19.83-4.97-28.62-6.98-10.69-20.62-22.81-33.8-34.53-6.02-5.35-11.71-10.41-15.41-14.18-8.06-8.22-16.2-17.04-24.07-25.57-30.74-33.32-62.53-67.78-106.89-87.28-29.51-12.97-60.42-21.98-90.31-30.7-8.93-2.6-18.06-5.26-27.09-8.02.18-10.1,1.68-20.08,4.39-29.01,1.42-4.68,3.8-7.84,7.39-12.61.8-1.06,1.64-2.18,2.52-3.38,2.58.24,5.14.36,7.69.36,19.53,0,38.45-6.92,56.23-20.56,12.04-9.24,23.22-22.53,31.49-37.42,9.29-16.73,14.13-33.99,13.99-49.9-.14-16.26-5.34-30.5-15.17-41.88,21.58-56.58,21.52-110.67-.2-160.94-16.4-37.95-45.54-69.61-84.29-91.55-17.89-10.14-37.42-17.96-58.04-23.26-20.33-5.22-41.26-7.87-62.21-7.87h0Z"/>
      </g>
      <path class="cls-19" d="M1163.06,534.43c-6.06,12.53-14.95,18.21-19.19,32.2-4.77,15.71-6.22,33.38-4.67,49.7,42.9,13.8,87.43,23.97,128.78,42.14,51.63,22.69,86.22,69.29,124.74,108.55,11.99,12.22,38.26,32.66,46.75,45.64,4.61,7.05,3.32,15.84-2.8,21.31,23.5,24.24,50.33,48.12,69.05,76.44,26.4,39.94,24.16,89.64-20.96,113.74-33.47,17.87-78.92,14.43-115.68,11.35-7.42-.62-17.46-3.42-24.31-3.5-7.81-.09-15.7,4.14-26.49,3.49-6.93-.42-25.01-6.28-28.8-5.77-2.38.32-6.09,3.91-8.73,5.22-12.55,6.24-24.95,11.14-39.29,10.94-.82,46.12,2.95,92.04,5.75,137.99-1.31,6.88-19.78,10.79-25.85,13.18-1.93,1.35,1.27,23.09,1.79,27.1,5.25,40.38,16.66,86.64,19.32,126.19.17,2.56.48,5.45.17,7.97-1.29,10.72-17.5,16.29-26.09,20.11,1.35,10.64.55,22.36,1.83,32.96,2.89,23.8,20.3,46.19,28.88,69.29,21.35,57.49,12.89,120.02,18.39,180.04,12.81,4.44,17.28,14.6,20.88,26.68,4.38,14.75,5.53,30.33,10.07,45.37,10.81,35.83,51.1,91.11,4.54,117.1-29.64,16.55-121.67,17.14-150.55-1.12-33.08-20.92-4.51-63.22,2.55-89.13,5.2-19.1,3.33-48.56,9.24-63.52,1.45-3.67,6.48-7.58,6.17-10.67-17.09-58-45.9-113.49-61.86-171.56-2.62-9.53-3.66-22.09-6.42-30.53-1.41-4.32-9.01-11.87-11.83-17.05-10.42-19.15-14.92-44.71-19.56-65.9-1.49-2.07-36.93-3.44-43.38-11.22l-21.81-81.54-11.05-3.07-17.68,74.75c-5.5,9.95-30.79,9.95-32.07,11.81-.7,13.34-6.75,28.12-7.43,41.1-.54,10.31,7.28,26.62,9.81,37.5,14.47,62.04-10.73,122.38-20.27,183.02.23,3.17,3.87,3.1,5.76,4.72,15.71,13.34,13.43,55.73,18.82,75.88,2.85,10.67,10.96,17.57,8.68,31.19-5.59,33.5-68.02,30.26-92.12,34.9-17.64,3.4-35.01,12.91-52.23,18.22-42.04,12.94-108.87,13.78-148.56-6.8-18.75-9.72-24.67-17.22-21.95-38.99,4.46-35.65,36.98-39.8,64.16-52.48,25.73-12,49.89-27.09,74.73-40.76,9.05-15.19,11.34-34.05,30.45-39.99,1.93-.6,6.5.38,6.94-1.97-2.6-22.64-3.44-45.49-5.5-68.18-2.74-30.27-5.26-66.15-10.55-95.7-2.19-12.24-9.1-21.58-10.22-34.82-1.89-22.46,1.47-46.61,1.19-69.09-9.32-4.26-29.8-12.59-30.18-24.43l27.88-152.52c-.04-5.42-11.64-6.09-11.64-14.91l13.88-116.69,4.62-140.31c-10.28,5.9-20.02,12.93-30.39,18.68-12.86,7.12-20.99,12.45-36.61,7.21-43.3,29.3-102.47,73.98-153.01,31.88-53.62-44.66-58.2-142.44-34.91-203.57,18.31-48.04,60.04-52.95,86.13-89.41,15.46-21.6,13.22-30.47,12.8-55.24-.34-20.45,26.08-21.82,39.29-12.63,24.54,17.09,17.4,63.8,5.85,87.1l73.4,15.09,3.46-1.17c23.22-18.27,44.26-41.22,70.2-55.68,36.86-20.55,82.46-22.27,123.13-31.05l-.07-4.42c-42.17-8.51-62.63-46.45-78.6-82.5-14.99-33.85-27.58-71.13-22.75-108.61.65-5.02,4.57-17.34,4.15-20.81-.19-1.56-5.91-10.83-7.14-14.61-3.56-10.93-4.71-24.88-4.14-36.38.22-4.35,2.69-12.6,2.37-16.1-.39-4.15-7.91-4.93-6.99-15.04,1.28-14.06,18.12-15.03,28.9-15.6l1.12-11.48c-42.09-14.63-87.22-45.7-70.93-97.02,8.42-26.51,37.7-50.49,64.25-57.01,34.38-8.44,70,3.29,103.18,11.98,95.48-46.93,233.28-10.25,276.78,90.41,22.64,52.41,17.53,105.88-4.8,157.34l.5,1.64c37.25,27.56,9.82,84.78-19.63,107.37-18.34,14.07-38.65,20.18-61.59,14.05ZM1202.18,209.77c-23.69-22.69-72.42-43.88-104.85-49.32-35.17-5.9-73.65-2.28-106.48,11.79,32.17,15.24,61.94,35.89,89.47,58.35,33.6,27.41,65.21,59.1,93,92.36,10.05,12.03,20.51,25.95,29.81,38.9,9.73,13.55,18.55,27.77,27.37,41.93,2.33.52,1.6-.91,2.23-2.32,28.93-64.4,21.63-141.73-30.54-191.7ZM828,193.61c-14.06,17.8-19.19,38.6-6.93,58.9,11.56,19.14,35.66,32.68,56.58,39.27.98-25.99,22.18-35.98,43.89-42.74,14.01-2.35,27.35-4.29,41.58-4.62.77-.02,1.54,0,2.31,0,25.78-.16,45.78,5.24,70.45,8.08.14.55.61,1.06,1.15,1.15.92.16,2.45.07,3.46,0,2.12,1.21,4.62,1.64,6.93,2.31,17.93,5.22,35.12,10.64,51.83,19.2,4.15,2.13,9.92,7.03,13.44,8.51.52.22,1.89.3,1.71-.56-2.55-2.12-7.17-8.4-10.39-8.67-.31-.44-.84-.74-1.15-1.15-1.4-1.83-2.11-2.14-3.46-3.46-41.52-40.48-92.5-80.28-148.98-96.43-45.07-12.89-89.6-21.33-122.41,20.21ZM905.38,269.83c-12.67,8.27-14.78,22.12-16.14,36.4s.83,8.69,13.24,9.8c16.91,1.52,53.01,6.62,65.81,17.34,3.19,2.68,7.5,10.4,8.7,10.99,3.74,1.84,21.06-4.36,26.14,5.06,5.12-2.58,6.83-7.84,12.31-10.54,20.18-9.95,68.85.39,90.62,6.86,7.01,2.08,30.72,10.17,34.96,14.72,2.96,3.18.67,4.74,1.29,6.73.35,1.12,13.51,8.29,15.44,8.86,2.36.7,1.44-.62,1.66-1.74,2.02-9.97-.76-32.27-6.91-40.37-11.15-14.67-52.84-43.35-70.42-49.11-2.49.58-2.08-1.8-3.75-2.64-23.13-11.6-60.55-20.28-86.33-22.77-13.9-1.34-28.74-1.9-42.73-1.15-13.71.73-32.28,3.97-43.89,11.55ZM886.9,327.57l-8.67,84.32c2.79,5.68,29.42,10.16,35.82,10.37,31.69,1.06,49.1-26,51.37-54.86,1.78-22.69-7.34-28.15-27.69-33.48-16.12-4.22-34.2-6.54-50.83-6.35ZM873.04,332.2c-3.89-.83-5.16,2.83-6.59,5.53-5.66,10.66-6.42,33.81-4.94,45.84.66,5.34,2.58,10.35,3.46,15.61,1.63,1.78,2.09-.14,2.29-1.73,2.73-21.68,4.06-43.53,5.78-65.25ZM1026.34,346.32c-5.94.99-11.85,4.85-13.29,10.96-2.9,12.27-2.68,49.46,2,60.99,8.99,22.1,56.49,29.66,76.25,21.89,14.01-5.51,22.75-21.44,27.39-34.97s11.38-31.55-2.05-41.16c-12.69-9.08-74.89-20.28-90.31-17.7ZM1205.65,401.47c-8.93-17.14-21.38-32.37-34.63-46.18l1.73,27.71c4.52,2.29,30.23,20.57,32.91,18.47ZM976.98,370.3c-2.02,13.52-5.87,33.23-13.64,44.69-7.5,11.07-26.06,4.44-24.38,25.03,1.97,24.15,32.1,29.14,51.33,23.87,1.51-.42,12.16-5.98,8.63-.62-13.09,19.91-50.25,15.6-64-1.83-6.66-8.44-5.82-17.22-11.06-25.89-17.27-.56-35.23-1.56-50.26-10.95-11.82,39.55,3.85,81.2,20.38,117.05,18.25,39.56,34.75,68.64,81.83,74.65,11.35,1.45,21.02,1.19,32.34,0,46.01-4.82,91.94-28.25,122.39-62.97,4.87-5.55,25.16-35.72,27.77-36.93,4.75-2.19,5.98,2.34,9.55,4.29,24.11,13.15,58.54-14.24,68.96-34.89,11.09-13.43,17.79-41.09,6.92-56.04-1.04-1.44-2.51-1.91-3.46-2.86-20.17-20.13-43.63-5.39-59.49,11.54-4.6,4.91-8.38,15.58-16.74,13.37-13.86-3.67-5.71-24.55-4.62-34.73.7-6.52,1.13-14.02.97-20.59-.66-1.93-15.34-10.19-17.45-9.83-9.25,1.57-9.89,16.79-12.66,24.38-5.83,15.97-15.29,30.72-29.75,40.12-14.25,5.64-27.9,5.21-42.73,3.46-21.73-2.56-48.05-12.4-55.48-35.18-1.58-4.84-1.77-9.76-3.42-14.48.4-8.15.15-17.19,0-25.41l2.15-15.66c-1.46-.57-2.22-1.97-3.3-2.82-5.67-4.48-11.03-5.71-18.55-4.11-1.04.73-1.85,10.77-2.24,13.35ZM1171.01,430.35l17.31-15.6c.65-2.61-13.42-10.92-15.6-13.26l-1.71,28.87ZM1123.65,597.81c.61-5.59,2.65-12.6,1.74-18.47-42.25,35.42-97.35,56.9-153.01,49.64-1.06,4.77-3.05,9.28-4.63,13.87-.41,1.17-.79,2.27-1.15,3.46-1.29,4.24-3.66,8.64-3.51,13.25.52,16.06,23.51,25.7,36.77,27.99,27.1,4.69,60.84-2.51,83.39-18.14,11.11-5.96,31.32-21.16,36.96-32.34,8.04-10.38,1.42-26.63,3.46-39.27ZM545.06,838.02c-.53,11.62-.73,26.57,0,38.11,3.81,60.15,44.83,124.42,113.18,99.32,11.71-4.3,22.83-11.42,33.39-18,5.95-3.7,48.96-31.86,49.77-34.78,3.18-11.48-12.48-45.32-18.72-56.13-2.13-3.69-13.33-23.8-18.16-20.35-.86,2.75-2.06,5.55-3.56,8-7.61,12.48-22.32,20.69-36.95,18.48,2.99,7.04,4.42,13.32,5.77,20.78,1.84,10.23,3.12,17.25,1.15,27.72-.41,2.16-.14,4.67-1.2,6.9-1.66.27-3.2-.25-4.57-1.13-1.54-14.44-3.45-28.91-8.08-42.73-.95-2.83-3.14-10.42-4.57-12.18-.55-.67-13.14-10.02-13.96-10.29-4.01-1.35-7.9-.16-11.92-.78-12.05-1.85-29.95-6.11-39.92-13.21-2.98-2.12-15.55-13.61-10.51-17.32,1.75-1.4,3.42.45,4.66.65,16.33,12.75,37.71,18.17,58.37,17.37,6.4-.25,28.48-5.83,31.81-1.88,4.13,4.89-4.03,6.36-7.03,7.61-3.16,1.31-7.66,1.24-9.24,4.61,11.85,5.91,36.36-3.21,37.57-17.19.71-8.25-19.62-12.72-23.4-16.58-1.28-1.31-2.22-4.87-.37-6.11,5.83-3.88,27.54,9.24,32.99,13.4,8.21-5.71,11.95-17.58,4.66-25.53-5.08-5.54-29.25-15.41-30.53-20.39-2.41-9.35,14.09-2.13,17.16-.88,7.65,3.1,16.41,7.7,22.56,13.19,17.02-15.84,2.66-28.68-12.51-37.1-5.72-3.17-17.26-6.38-21.53-9.65-2.04-1.56-3.64-3.64-1.22-5.77,2.75-1.19,5.57-.53,8.38-.22,29.53,3.23,61.97,17.24,92.72,19.29,9.96.67,21.01,1.96,21.45-10.94.35-10.26-7.43-11.94-15.39-14.75-38.56-13.63-80.08-17.18-118.91-27.76-3.16-.86-6.97-1.36-5.44-5.88,1.34-3.95,11.45-2.11,12.72-3.73,3.96-5.03,9.83-30.85,10.31-37.93.69-10.01-.39-28.28-8.69-35.28-4.5-3.8-17.57-7.84-20.54-.83-.8,1.89.72,19.79.3,24.5-5.66,63.34-79.52,72.78-100.18,125.02-7.1,17.94-10.94,41.12-11.82,60.36ZM1325.75,891.15c18.22-22.05,66.01-71.02,96.52-69.39,3.98.21,1.57,1.28,3.95,2.4l.53-5.83c-43.01-41.26-82.54-86.1-127.01-125.79-19.34-16.22-43.38-25.19-66.93-33.54-31.09-11.02-63.19-19.03-94.64-28.89-23.81,53.08-101.42,85.39-156.04,65.91-21.31-7.6-39.25-27.57-28.25-50.85-41.15,8.35-86.34,10.68-122.31,34.16-18.95,12.37-35.14,30.12-53.22,43.79,14.91,5.14,34.36,7.5,36.85,26.65,2.34,17.95-9.56,29.22-26.98,29.4l-57.22-10.42c6.92,10.04,6.18,24.41-1.35,33.86-2,2.51-7.25,5.77-7.72,7.37-.8,2.69,1.18,6.88.72,10.98-.62,5.54-4.23,10.39-6.33,15.36,14.2,16.33,25.12,35.43,32.01,56,3.27,13.34,9.56,27.22,2.31,40.41,2.54.35,4.46-1.06,6.56-2.09,14.18-6.99,28.15-18.24,42.03-26.1,3.16-7.41,1.57-15.48,2.24-23.17,1.99-22.97,4.33-46.01,8.07-68.73,3.26-19.78,7.58-39.5,13.55-58.63,3.04-9.74,9.07-29.3,14.98-36.92.74-.95.84-3.26,2.66-.87-5.2,21.98-10.64,43.93-14.66,66.18-19.22,106.2-11.21,213.81-22.45,320.55-2.29,21.71-8.3,47.23-9.14,68.34-.08,1.92-.2,3.02,1.19,4.57,4.2,4.69,43.54,14.23,51.96,16.17,87.58,20.1,188.55,22.9,277.61,11.96,37.15-4.56,74.17-12.54,109.29-25.28-1.24-3.16-.89-6.08-1.16-9.22-2.3-26.45-3.67-53.11-4.62-79.69-.03-.77.02-1.54,0-2.31s.02-1.54,0-2.31c-.38-11.96.3-23.87-1.16-35.8-.76-.82-11.59,3.92-13.85,4.61-10.94,3.35-18.48,3.61-29.12-1.49-4.11-1.97-14.55-9.79-16.21-13.82-.85-2.07-.72-6.33-.94-6.57-.3-.32-5.5-.8-8.39-2.58-5.11-3.14-10.01-10.23-11.74-15.97-1.5-4.97-1.08-13.7-2.3-16.18-.44-.9-6.85-5.44-8.7-7.47-1.66-1.82-5.73-6.8-6.91-8.68-.15-4.15-2.37-7.94-2.39-12.13s3.88-13.79,3.37-15.92c-.31-1.32-4.93-6.09-6.18-8.9-10.5-23.67,7.72-43.44,27.88-52.96,2.6-1.23,18.89-6.62,18.87-7.67-17.9-17.17-29.56-44.82-16.34-68.33,8.5-15.12,33.24-28.68,42.33-7.3,5.1,11.99,2.28,22.65,10.98,34.63,6.34,8.73,16.74,13.89,24.85,20.77l-9.83-19.05,1.71-.56c20.36,17.58,39.14,37.3,59.47,54.86,10.38,8.97,13.59,11.88,27.38,5.4,8.21-3.86,9.02-6.64,14.21-12.93ZM1304.72,921.44c-1.8-1.04-11.35.09-15.07-.54-13.17-2.21-31.92-24.5-43.04-33.18-15.71-12.28-44.83-25.39-53.53-43.48-5.04-10.48-4.04-23-8.13-32.28-2.11-4.8-8.18-1-11.57,1.32-21.5,14.69-9.65,46.33,6.25,60.58,1.3,1.16,6.05,5.17,7.2,5.5,3.86,1.1,13.46-.15,15.95,4.85,4.13,8.31-8.9,6.32-12.61,7.06-21.39,4.22-73.55,24.32-49.63,52.91,9.63-5.86,41.46-23.75,51.64-20.5,4.24,1.35,1.12,4.92-1.16,6.55-13.97,9.98-55.55,19.12-50.69,41.83.91,4.24,6.82,13.91,11.64,13.77,1.21-.03,16.37-10.9,20.56-12.89s27.42-11.4,29.65-9.03c-.12,1.41.42,3.11-.27,4.37-1.97,3.6-32.18,17.24-38.41,23.35-10.41,10.22-4.51,25.12,8.09,29.68,10.36-8.55,24.04-15.07,37.52-15.83-.02,1.62.27,3.4-.23,4.97-1.63,5.21-25.6,12.86-29.28,19.31-1.79,4.22,7.32,9.89,10.6,11.37,8.97,4.03,14.48,2.26,23.52.13-1.78-2.91-8.1-2.36-9.88-5.74-4.15-7.88,18.36-2.47,20.87-2.34,16.1.82,33.52-.96,47.93-8.63,5.41-2.88,11.42-9.22,16.67-11.05,9.16-3.2,17.82,1.1,22.63-12.03,2.36-6.45-1.56-6.45-3.73-11.38-3.49-7.91-10.06-39.17-10.06-47.69,0-5.24,3.38-14.38,9.1-15.49.41-.58-2.04-5.19-2.54-5.48ZM1353.47,908.47c19.38-3.66,38.11-12.85,58.66-15.83,4.81-.7,29.03-4.01,30.26,1.41.2,2.21-1.42,2.3-2.94,2.82-5.89,2-14.8,2.41-21.31,4.09-21.5,5.55-42.25,13.92-63.5,20.23l8.07,6.34c7.45,9.32,13.91,47.51,9.8,58.3-2.4,6.3-6.7,8.24-9.8,16.19-2.37,6.1-4.29,12.46-6.92,18.47,3.49.02,6.94.72,10.39,1.16.75.1,1.56-.08,2.31,0,27.82,3.11,55.46,5.62,83.15,0,43.03-8.73,68.84-37.44,54.6-82.9-8.1-25.85-60.48-80.3-82.32-98.42-1.44-1.2-5.04-5.29-6.53-5.58-32.87,12.64-62,36.66-82.23,65.26-.34,3.95,10.97,9.3,14.47,9.61,2.66.23,3.14-1.01,3.84-1.15ZM1338.46,916.54c-6.84-10.42-17.82-2.5-27.71-3.45-.41,3.32,3.98,4.14,6.45,4.5,7.3,1.07,14.04-1.53,21.26-1.06ZM1335.92,928.45c-4.79.37-14.3,1.67-18.58,3.36-8.91,3.52-6.2,9.56-5.1,17.32s4.2,25.44,7.17,32.09c3.77,8.43,21.93,5.94,29.9,4.49,4.24-.77,12.27-2.18,12.33-7.32-2.82-12.07.66-37.02-7-46.26-4.75-5.73-11.97-4.21-18.72-3.69ZM1352.31,996.25l-24.26,2.87-9.89,16.67-7.41,5.85c21.44,5.26,39.66-1.68,41.56-25.39ZM803.75,1198.34c-2.69,11.74-5.4,27.31-6.93,39.27-.21,1.62-1.13,4-1.15,4.62-.03.76-.04,1.55,0,2.31.52,1.51-1.16,3.85-1.15,4.62s0,1.54,0,2.31l-11.55,61.21c-.04.77.06,1.55,0,2.31.26,3.23-2.14,7.71-2.31,10.39-.02.38,0,.77,0,1.15.53,1.47-1.18,3.93-1.15,4.62.01.38,0,.77,0,1.15l-2.39,11.95c.19,1.23,5.85,3.45,7,4.22,36.35,24.28,107.25,34.33,150.13,30.03,5.65-.57,26.97-2.69,29.41-6.97,1.7-9.48,18.42-66.79,15.46-71.4-9.91-3.06-19.58-6.79-28.71-11.71-8.4-4.53-16.45-9.88-23.09-16.75l1.72-.58,84.39,25.34,21.54,82.39c1.93,4.17,11.82,3.86,15.92,4.29,1.59,1.51,4.38,1.9,6.49,2.17,19.61,2.55,43.66,2.91,63.37,1.28,7.86-.65,15.92-2.11,23.69-3.45.77-.04,1.54.04,2.31,0,1.23-.07,4.66-1.35,5.77-2.31.38-.02.77.03,1.15,0,1.51-.1,3.16.19,4.62,0,16.37-2.13,31.45-8.59,46.19-13.86,1.12-.4,3.82.25,5.81-.51,4.42-1.69,19.16-6.72,19.6-11.63l-21.96-153.01c-12.35,1.89-24.44,5.47-36.71,7.75-94.92,17.6-201.04,17.8-296.13,1.16-23.46-4.11-46.88-9.76-69.53-17.02-.98-.02-1.57,3.54-1.83,4.66ZM807.22,1387.74c-.63,25.25-7.41,58.95,11.55,78.53,1.73,2.79,10.66,14.21,10.4,15.57-.77,3.98-9.75.65-11.54-1.71l8.25,82.39c1.81,5.54,33.85,11.87,40.24,12.31,15.71,1.08,33.42-.08,48.5-4.62,3.98-1.2,14.74-4.83,16.46-8.37,2.35-4.82,5.08-29.56,5.47-36.11,1.16-19.48-.18-38.55-4.94-57.4-6.92-27.44-10.65-29.65-5.45-59.8.39-2.23,4.82-14.81,3.47-16.16-41.52,2.14-82.85-4.53-121.82-18.5-1.07-.02-.55,11.95-.59,13.88ZM1112.1,1400.45h-30.03c5.7,28.96,12.46,61.29,35.79,81.43,7.74,6.68,17.22,10.23,24.24,17.31.05,2.48-9.98,1.84-11.98,1.6-5.35-.64-9.61-3.61-14.58-5.05,6.16,29.05,17.5,56.48,27.91,84.12l1.77,1.69c29.03,6.21,62.15,5.74,88.48-9.25,2.55-1.45,13.22-8.31,14.07-10.18,1.41-3.11-1.14-29.6-1.86-35.06-2.25-16.95-8.11-35.4-14.66-51.17-13.99-33.69-24.45-39.78-26.77-80.06-.22-3.9.48-8.43,0-12.15-.17-1.34.47-2.31-1.69-1.67-11.2,3.32-22.05,8.59-33.89,10l-56.81,8.44ZM828,1588.69c1.06,14.69,1.97,29.81,3.47,44.46,1.01,9.87,7.48,8.03,14.64,11.92,12.23,6.65,20.56,15.13,20.15,30.08,13.24,6.01,35.47,12.11,42.32-5.31,5.72-14.55,8.7-43.51,12.37-60.38,2.15-9.88,4.32-19.84,7.51-29.45l-24.01,6.07c-1.56.56-3.39.08-4.85.29-24.44,3.66-49.2,1.41-72.17-8.09.81,3.44.32,6.94.57,10.4ZM1244.91,1580.61c-20.45,12.15-26.15,10.88-47.71,16.2-.92.23-.74,2.1-1.58,2.3-2.86.65-6.85-1.56-10.23-1.3-1.38.11-12.11,6.76-15.19.15l-21.14-1.76,28.88,79.12c2.9.42,3.22-3.07,5.74-5.22,16.09-13.73,49.44-14.04,68.16-6.33.08.03-.12,1.36,1.14,1.15,0-2.69.04-5.4.01-8.08-.01-1.15.06-2.32,0-3.46-.25-4.99-.92-9.94-1.15-15.01-.04-.77.03-1.54,0-2.31-.4-9.21-.71-18.51-1.15-27.72-.07-1.53.08-3.09,0-4.62-.42-8.38-2.02-16.84-1.16-25.4-2.05-.35-3.04,1.37-4.61,2.3ZM934.25,1716.88c.75-11.57-5.41-29.32-6.09-41.84l-6.05-6.66c-5.89,26.05-29.62,28.83-52.01,21.98-3.22-.99-8.62-4.77-11.56-4.61-2.54.14-14.19,13.47-13.82,4.54,17.31-16.59,7.89-30.93-11.79-37.83-22.46-7.88-26.93,3.46-34.96,21.67,10.69-.43,38.7,10.14,38.23,22.52-.05,1.32-.13,2.62-1.2,3.56-3.95,2.87-10.57-4.92-14.03-6.92-6.55-3.79-20.32-10.16-27.64-8.25-1.86.48-6.83,3.46-8.06,5.25,8.33.49,18.23,3.96,24.8,9.28,4.42,3.58,10.5,9.15,5.23,14.45-3.5,2.16-17.4-8.06-22.32-10.07-8.54-3.48-19.35-8-27.34-1.53,6.85,2.84,32.35,10.19,33.52,18.54.53,3.77-1.5,8.17-5.83,6.96-2.91-.81-11.5-7.27-16.18-9.29-5.87-2.54-19.1-7.13-25.14-7.32-2.74-.09-8.26,3.25-10.62,4.98,7.98.18,37.2,11.23,37.94,19.83-1.24,4.01-3.85,5.62-7.93,4.49-5.91-1.64-15.52-8.5-22.48-11.06s-15.36-4.7-23.02-5.74c-16.24,9.49-37.13,13.94-53,23.31-6.06,3.57-13.13,8.61-14.66,15.94,12.69-3.62,24.2.37,34.54,7.61,15.41,10.79,16.42,19.64,38.74,21.31,40.61,3.04,63.05-8.02,98.79-21.99,8.2-3.21,16.06-6.87,24.52-9.55,26.69-8.46,56.19-10.77,80.59-24.76-.37-5.36.49-11.26-.02-16.51-.05-.52-.61-1.03-1.15-1.15-.06-.35-.02-.8,0-1.15ZM1264.55,1674.16c-.02,4.05,2.79,7.04,3.36,11.07.69,4.88.87,23.88-7.28,21.17-3.44-3.06-1.34-9.28-2.13-14.07-5.16-31.28-76.71-29.7-73.53,6.52.23,2.6,5.39,15.39,1.64,15.69-7.79-1.92-8.46-9.01-13.28-13.82-2.24,24.62-3.56,47.45-11.54,71.04-3.1,9.17-14.21,28.67-10.69,37.22,2.71,6.57,17.12,13.88,24.01,14.18,15.26.66,27.4-21.04,46.13-23.14,30.47-3.41,34.83,20.63,59.92,18.34,12.96-1.19,28.2-10.65,25.61-25.31-3.03-17.15-17.41-40.47-22.89-59.12-4.65-15.85-5.62-35.01-11.52-49.69-.51-1.26-5.43-12.67-7.8-10.09ZM721.76,1801.19c-20.18-3.27-19.48-10.25-32.94-20.76-9.39-7.33-23.27-12.05-34.08-5.02-.09,9.22-1.5,13.16,5.92,19.33,20.82,17.3,67.77,20.66,94.04,20.33,1.95-.02,5.13.74,6.34-1.17,31.59,2.07,54.96-10.49,83.42-19.95,20.7-6.88,32.57-6.51,53.29-9.07s64.09-9.58,44.01-40.28c-26.87,15.45-58.75,16.77-87.77,26.55-47.3,15.94-77.64,38.88-132.21,30.05ZM1180.24,1833.52c-12.21-1.07-23.66-3.6-32.32-12.7-.57,9.51,5.9,20.18,16.16,20.79,5.23,2.86,12.21,4.61,18.06,5.61,26.01,4.43,91.15,5.14,113.59-7.92,10.5-6.11,15.14-13.1,16.17-25.4l-12.08,9.27c-8.22,4.32-24.06,6.86-32.96,4.58-10.36-2.66-16.37-11.26-25.78-15.22-28.06-11.79-37.69,13.66-60.84,20.99Z"/>
      <path class="cls-30" d="M803.75,1198.34l1.82,7.07c34.51,9.79,69.55,17.84,105.17,22.8,63.15,8.79,131.51,10.53,195,4.77,25.3-2.29,50.47-7.26,75.65-10.39l23.1,144.36c-14.74,5.27-29.82,11.72-46.19,13.86-.48-1.8-4.25-1.73-4.62,0-.38.03-.77-.02-1.15,0-1.92.09-3.87-.1-5.78,0v2.31c-.76.04-1.53-.04-2.3,0-31.09,1.65-61.75,3.36-93.54,0-4.1-.43-13.98-.12-15.92-4.29l-21.54-82.39-84.39-25.34-1.72.58c6.65,6.87,14.69,12.22,23.09,16.75l-19.42,87.48,3.25,2.6c-42.89,4.3-113.79-5.75-150.13-30.03l-4.48-4.25c-.68-3.16,1.07-5.95,1.11-9.06.04-2.59-1.25-2.7-1.25-2.86,0-.38.01-.77,0-1.15h2.31c1.09-2.21-1.15-4.38-1.15-4.62,0-.38-.02-.78,0-1.15,2.69,1.34,3.44-5.17,3.52-7.58.08-2.7-1.22-2.66-1.21-2.82.06-.76-.04-1.54,0-2.31,3.27.68,2.17-1.61,2.65-3.64,3.99-17.01,8.86-41.2,8.9-57.57,0-.77,0-1.54,0-2.31h2.31c1.09-2.18-1.14-4.38-1.15-4.62-.04-.76-.03-1.55,0-2.31h2.31s-1.15-4.62-1.15-4.62c1.53-11.96,4.24-27.53,6.93-39.27Z"/>
      <path class="cls-27" d="M997.77,361.06c1.08.85,1.84,2.25,3.3,2.82l-2.15,15.66c-.01-.61.68-6.02-1.16-4.04l.02,32.9c1.94.31,1.08-2.17,1.14-3.46,1.65,4.72,1.84,9.64,3.42,14.48,7.42,22.78,33.75,32.62,55.48,35.18-2.06,3.15-1.11,2.17,1.72,2.31,13.62.66,29.41,1.77,41.02-5.77,14.46-9.4,23.92-24.15,29.75-40.12,2.77-7.59,3.42-22.81,12.66-24.38,2.1-.36,16.79,7.91,17.45,9.83.16,6.57-.27,14.07-.97,20.59-1.08,10.17-9.24,31.05,4.62,34.73,8.36,2.22,12.14-8.46,16.74-13.37,15.86-16.93,39.32-31.67,59.49-11.54,13.24,18.15,5.68,40.78-3.46,58.9-10.42,20.65-44.85,48.04-68.96,34.89-3.57-1.95-4.8-6.48-9.55-4.29-2.62,1.21-22.91,31.38-27.77,36.93-30.44,34.72-76.37,58.15-122.39,62.97-7.94-2.04-17.66-1.26-26-1.17-1.95.02-5.14-.74-6.34,1.17-47.08-6.02-63.58-35.09-81.83-74.65-16.54-35.84-32.2-77.49-20.38-117.05,15.02,9.39,32.98,10.39,50.26,10.95,5.24,8.67,4.4,17.45,11.06,25.89,13.75,17.43,50.91,21.74,64,1.83,3.53-5.36-7.11.2-8.63.62-19.23,5.28-49.36.29-51.33-23.87-1.68-20.59,16.87-13.96,24.38-25.03,7.77-11.46,11.61-31.16,13.64-44.69,3.12,2.05,2.2,1.13,2.31-1.71.15-3.65-.11-7.35,0-10.99,6.48-.72,12.4,1.85,18.48,3.47ZM1233.36,449.99c-1.32-1.38-1.97-6.13-6.34-9.25-13.48-9.61-28.86,7.84-36.17,18.12-2.61,3.68-15.02,23.54-11.76,26.92,7.7.19,9.28-14.53,16.83-14.99,8.25-.51,10.36,9.64,6.75,16.06-.78,1.39-7.78,6.89-6.25,8.17,2.24.47,3.83-.48,5.77-1.15.13.8-4.61,9.73-.59,8.07,1.06-.44,11.03-10.82,12.74-12.68,6.27-6.86,21.15-24.51,22.3-33.24.86-6.57-2.55-5.3-3.26-6.04ZM1078.62,490.41c2.28-2.71,9.89,11.66,10.97,12.67,5.34.29-2.3-17.7-3.51-19.56-5.36-8.21-18.22-12.7-27.57-9.36-2.44,3.03,1.14,4.56,3.49,5.72,1.71.84,11.92,2.5,8.51,5.31s-14.99,6.73-19.62,8.1c-31.49,9.31-76.87,7.72-108.79.24-4.46-1.05-22.33-8.15-25.02-6.44-5.49,9.82,9.48,10.92,15.86,13.87-.03,26.73,14.53,64.05,41.77,73.14,49.25,16.44,101.03-37.01,103.91-83.69Z"/>
      <path class="cls-27" d="M545.06,838.02c.88-19.24,4.73-42.42,11.82-60.36,20.66-52.24,94.52-61.68,100.18-125.02.42-4.71-1.1-22.62-.3-24.5,2.97-7.01,16.04-2.96,20.54.83,8.3,7,9.38,25.27,8.69,35.28-.49,7.08-6.35,32.9-10.31,37.93-1.27,1.62-11.38-.23-12.72,3.73-1.54,4.52,2.28,5.02,5.44,5.88,38.83,10.58,80.35,14.13,118.91,27.76,7.96,2.81,15.74,4.49,15.39,14.75-.44,12.9-11.5,11.61-21.45,10.94-30.75-2.06-63.19-16.06-92.72-19.29-2.81-.31-5.63-.97-8.38.22-2.42,2.13-.82,4.22,1.22,5.77,4.27,3.27,15.81,6.48,21.53,9.65,15.17,8.42,29.53,21.26,12.51,37.1-6.15-5.49-14.91-10.09-22.56-13.19-3.06-1.24-19.56-8.47-17.16.88,1.28,4.98,25.44,14.85,30.53,20.39,7.29,7.95,3.55,19.82-4.66,25.53-5.44-4.16-27.15-17.28-32.99-13.4-1.86,1.23-.92,4.8.37,6.11,3.78,3.86,24.11,8.33,23.4,16.58-1.21,13.99-25.72,23.1-37.57,17.19,1.58-3.37,6.08-3.3,9.24-4.61,4.47,2.25,11.02-3.38,8.69-8.09-3.26-6.61-20.29-.49-26.61-.01-18.32,1.39-37.04-.63-53.56-8.77-4.79-2.36-6.05-5.32-11.67-6.23-1.24-.2-2.92-2.06-4.66-.65-5.04,3.71,7.52,15.2,10.51,17.32,9.97,7.1,27.87,11.36,39.92,13.21,4.02.62,7.91-.57,11.92.78.82.28,13.41,9.62,13.96,10.29,1.43,1.76,3.62,9.35,4.57,12.18l5.98,40.84c.38,1.36,1.24,1.35,2.1,1.89,1.38.87,2.92,1.39,4.57,1.13,1.06-2.23.79-4.74,1.2-6.9,3.15,2.06,2.17,1.12,2.31-1.72.36-7.57.1-14.61-1.13-22.04-.36-2.17,1.31-4.62-2.33-3.96-1.34-7.46-2.77-13.74-5.77-20.78,14.63,2.2,29.34-6,36.95-18.48,12.36,18.05,22.62,48.53,12,69.16-5.39,10.48-19.6,21.26-28.77,28.97s-18.02,14.58-27.66,20.81l1.7,2.32c-68.35,25.1-109.36-39.17-113.18-99.32,1.91-1.2,1.15-4.38,1.17-6.34.1-8.46.09-16.98,0-25.44-.02-1.95.74-5.14-1.17-6.34Z"/>
      <path class="cls-27" d="M1304.72,921.44c.5.29,2.95,4.9,2.54,5.48-5.72,1.12-9.1,10.25-9.1,15.49,0,8.52,6.57,39.78,10.06,47.69,2.17,4.92,6.09,4.92,3.73,11.38-4.81,13.14-13.47,8.83-22.63,12.03-5.25,1.83-11.25,8.17-16.67,11.05-14.41,7.67-31.83,9.45-47.93,8.63-2.51-.13-25.02-5.54-20.87,2.34,1.78,3.38,8.11,2.84,9.88,5.74-9.04,2.12-14.55,3.89-23.52-.13-3.28-1.47-12.38-7.15-10.6-11.37,3.68-6.45,27.65-14.11,29.28-19.31.49-1.57.21-3.35.23-4.97-13.48.76-27.16,7.28-37.52,15.83-12.61-4.57-18.51-19.46-8.09-29.68,6.23-6.12,36.45-19.76,38.41-23.35.69-1.26.15-2.96.27-4.37-2.24-2.37-25.63,7.12-29.65,9.03s-19.34,12.85-20.56,12.89c-4.82.13-10.74-9.53-11.64-13.77-4.86-22.71,36.72-31.85,50.69-41.83,2.28-1.63,5.4-5.2,1.16-6.55-10.18-3.25-42.01,14.65-51.64,20.5-23.92-28.59,28.24-48.69,49.63-52.91,3.71-.73,16.74,1.26,12.61-7.06-2.49-5-12.09-3.75-15.95-4.85-1.15-.33-5.9-4.34-7.2-5.5-15.9-14.26-27.74-45.9-6.25-60.58,3.39-2.32,9.45-6.12,11.57-1.32,4.09,9.28,3.1,21.8,8.13,32.28,8.69,18.09,37.81,31.2,53.53,43.48,11.12,8.69,29.87,30.97,43.04,33.18,3.71.62,13.27-.51,15.07.54Z"/>
      <path class="cls-24" d="M1204.49,1395.83c2.32,40.28,12.77,46.37,26.77,80.06,6.55,15.77,12.41,34.21,14.66,51.17.73,5.46,3.28,31.95,1.86,35.06-.85,1.87-11.51,8.73-14.07,10.18-26.33,14.99-59.45,15.46-88.48,9.25l-1.77-1.69c-10.41-27.64-21.75-55.07-27.91-84.12,4.97,1.44,9.22,4.41,14.58,5.05,2,.24,12.03.87,11.98-1.6-7.02-7.08-16.5-10.63-24.24-17.31-23.33-20.14-30.09-52.48-35.79-81.43h30.03s4.61,1.14,4.61,1.14h-32.33s1.17,11.55,1.17,11.55c32.05,1.95,64.76.15,96.06-7.28,7.21-1.71,19.52-3.27,22.88-10.04Z"/>
      <path class="cls-24" d="M1451.63,1021.65c-3.58-2.86-11.67,1.15-15.59,1.15h-45.04c-4,0-11.72-1.88-16.19-2.31-1.87-.18-5.17-.68-6.33,1.16-.75-.08-1.56.1-2.31,0,.75-4.42-6.05-1.56-8.08-2.32-1.67-1.46,8.07-14.14,4.61-17.32,3.09-7.95,7.39-9.89,9.8-16.19,4.11-10.79-2.35-48.98-9.8-58.3l-8.07-6.34c21.26-6.31,42-14.68,63.5-20.23,6.51-1.68,15.42-2.09,21.31-4.09,1.52-.52,3.14-.61,2.94-2.82-1.24-5.42-25.45-2.11-30.26-1.41-20.54,2.98-39.28,12.17-58.66,15.83-3.03-1.4,1.63-1.08,2.9-2.29,1.92-1.83,6.3-10.99,8.85-14.26,17.64-22.68,34.48-33.18,57.29-48.99,2.1-1.45.32-1.22,1.41-2.6,21.84,18.12,74.23,72.57,82.32,98.42,14.24,45.46-11.58,74.16-54.6,82.9Z"/>
      <path class="cls-24" d="M926.17,1408.53c-5.2,30.16-1.47,32.36,5.45,59.8,4.75,18.85,6.1,37.92,4.94,57.4-.39,6.54-3.12,31.28-5.47,36.11-1.72,3.53-12.48,7.17-16.46,8.37l-48.5,4.62c-6.38-.44-38.43-6.77-40.24-12.31l-8.25-82.39c1.79,2.35,10.77,5.69,11.54,1.71.26-1.35-8.67-12.77-10.4-15.57-4.23-6.83-9.33-15.73-10.27-23.8-1.96-16.76,1.19-36.49-.12-53.58,10.81,3.03,21.23,7.14,32.09,10.07,27.92,7.52,56.76,10.51,85.71,9.57Z"/>
      <path class="cls-34" d="M828,193.61c32.81-41.54,77.35-33.09,122.41-20.21,56.48,16.15,107.46,55.95,148.98,96.43l.59,4.61c-15.14-7.39-30.6-14.67-47.03-18.81-1.69-.42-4.35-1.92-5.52.34-2.31-.67-4.81-1.1-6.93-2.31.76-.06,1.54.05,2.3-.01v-1.13c-1.89-.18-3.89.2-5.77-.01-20.94-6.28-43.37-9.48-65.27-9.26-1.95.02-5.14-.74-6.34,1.17-.77,0-1.54-.02-2.31,0-3.75-1.92-10.27-1.46-14.42-1.14-9.25.72-18.38,3.03-27.15,5.76-21.71,6.75-42.92,16.75-43.89,42.74-20.92-6.59-45.02-20.13-56.58-39.27l-4.49-15.72c-1.19-10.64.75-20.19,4.27-30.12l7.15-13.06Z"/>
      <path class="cls-34" d="M1037.03,253.66c-.55-.09-1.02-.6-1.15-1.15.38.04.77-.04,1.15,0v1.15Z"/>
      <path class="cls-13" d="M1202.18,209.77c2.22,16.23-1.8,34.25-5.86,50.15-5.46,21.33-13.69,43.15-23.01,63.03-27.79-33.26-59.4-64.95-93-92.36-27.52-22.45-57.3-43.1-89.47-58.35,32.83-14.08,71.32-17.69,106.48-11.79,32.44,5.44,81.16,26.63,104.85,49.32Z"/>
      <path class="cls-16" d="M830.31,1770.01c-35.74,13.97-58.17,25.03-98.79,21.99-22.32-1.67-23.33-10.52-38.74-21.31-10.34-7.24-21.85-11.22-34.54-7.61,1.53-7.33,8.6-12.36,14.66-15.94,15.87-9.37,36.76-13.82,53-23.31,7.66,1.03,15.79,3.07,23.02,5.74s16.57,9.43,22.48,11.06c4.08,1.13,6.69-.48,7.93-4.49-.74-8.6-29.95-19.64-37.94-19.83,2.36-1.73,7.88-5.07,10.62-4.98,6.04.19,19.27,4.78,25.14,7.32,4.68,2.03,13.27,8.48,16.18,9.29,4.33,1.21,6.36-3.19,5.83-6.96-1.17-8.35-26.66-15.71-33.52-18.54,7.99-6.47,18.8-1.95,27.34,1.53,4.92,2,18.82,12.23,22.32,10.07,5.27-5.3-.81-10.87-5.23-14.45-6.56-5.32-16.47-8.78-24.8-9.28,1.23-1.79,6.2-4.77,8.06-5.25,7.32-1.91,21.09,4.46,27.64,8.25,3.46,2,10.08,9.8,14.03,6.92,1.07-.94,1.15-2.25,1.2-3.56.47-12.39-27.54-22.95-38.23-22.52,8.03-18.21,12.5-29.56,34.96-21.67,19.67,6.91,29.1,21.25,11.79,37.83-.37,8.93,11.28-4.41,13.82-4.54,2.94-.16,8.34,3.63,11.56,4.61,22.39,6.85,46.12,4.07,52.01-21.98l6.05,6.66c.68,12.52,6.84,30.27,6.09,41.84-5.95-12.49-3.56-29.72-8.11-42.13-.64-1.75-1.46-3.52-3.43-4.07.51,2.58-2.23,5.2-2.06,7.31.45,5.69,9.36,14.25,4.36,19.85-3.39,3.8-16.6,12.93-21.57,16.53-25.01,18.15-52,33.78-76.04,53.31l2.9,2.32Z"/>
      <path class="cls-16" d="M1264.55,1674.16c2.37-2.59,7.29,8.83,7.8,10.09,5.9,14.68,6.87,33.84,11.52,49.69,5.48,18.65,19.86,41.97,22.89,59.12,2.59,14.66-12.65,24.13-25.61,25.31-25.1,2.3-29.45-21.75-59.92-18.34-18.73,2.1-30.87,23.8-46.13,23.14-6.89-.3-21.3-7.61-24.01-14.18-3.52-8.55,7.59-28.05,10.69-37.22,7.98-23.6,9.3-46.43,11.54-71.04,4.83,4.82,5.49,11.91,13.28,13.82,3.75-.3-1.41-13.09-1.64-15.69-3.18-36.22,68.37-37.8,73.53-6.52.79,4.79-1.31,11.01,2.13,14.07,8.16,2.71,7.97-16.29,7.28-21.17-.57-4.03-3.38-7.01-3.36-11.07ZM1261.89,1709.12c-2.77-3.36-16.6-5.57-21.17-5.95-10.2-.86-43.18-.03-49.92,7.53-2.52,2.83-6.34,9.88.26,9.61,4.52-.19,12.44-3.44,17.8-4.26,9.57-1.46,21.2-2.2,30.85-1.46,4.05.31,21.22,5.14,23.19,2.37,1.25-1.76.42-6.11-1-7.83ZM1201.03,1727.27c-6.38,1.44-19.97,5.15-14.84,13.69,2.36,1.5,25.68-4.07,31.01-4.45l30.76,2.18,6.2-1.03c3.16.28,12.39,3.22,13.72-.73,1.95-5.4-4.81-8.54-9.11-9.67,3.16-1.24-2.74-1.89-3.23-1.96-14.58-2.17-34.68-2.75-49.17-.2-1.96.34-3.96.49-5.35,2.16ZM1214.65,1746.1c-8.09.68-41.36,3.85-31.38,16.88,18.25-3.2,36.64-6.56,55.28-5.67,8.58.41,18.3,3.16,26.54,3.51,2.5.1,6.21.69,7.41-1.94,2.33-6.98-7.17-9.22-12.34-10.47-13.43-3.24-31.7-3.47-45.5-2.31Z"/>
      <path class="cls-27" d="M1082.07,284.84c17.58,5.76,59.27,34.44,70.42,49.11,6.15,8.1,8.93,30.4,6.91,40.37-.23,1.12.7,2.44-1.66,1.74-1.93-.57-15.09-7.74-15.44-8.86-.62-1.98,1.67-3.55-1.29-6.73-4.24-4.55-27.96-12.64-34.96-14.72-21.77-6.47-70.43-16.81-90.62-6.86-5.48,2.7-7.19,7.96-12.31,10.54-5.08-9.41-22.4-3.22-26.14-5.06-1.2-.59-5.51-8.32-8.7-10.99-12.8-10.72-48.9-15.82-65.81-17.34-12.41-1.12-14.61,4.68-13.24-9.8s3.47-28.13,16.14-36.4c1.19,2.29,3.84.74,5.52.33,56.66-13.54,114.21-1,168.91,15.37l2.27-.69ZM897.31,309.09c12.34-9.71,25.85-16.79,42.13-16.15,5.48.21,22.37,5.43,25.25,4.49,3.11-1.02,2.14-11.95,1.36-14.93-4.28-16.43-31.66-14.19-43.66-8.95-13.12,5.73-22.79,21.75-25.08,35.54ZM1047.12,285.11c-2.25.41-5.27,1.91-7.03,3.37-3.32,2.75-10.07,15.37-6.04,18.41,2.12,1.59,19.45,1.72,24.06,2.5,10.9,1.83,24.01,7.09,33.56,12.64,3.7,2.15,17.42,13.23,18.95,13.47,8.31,1.32,1.44-14.25-.63-17.93-10.21-18.1-42.01-36.29-62.87-32.45Z"/>
      <path class="cls-17" d="M803.75,1198.34c.26-1.12.84-4.67,1.83-4.66,22.65,7.26,46.07,12.92,69.53,17.02,95.08,16.64,201.21,16.44,296.13-1.16,12.27-2.27,24.36-5.86,36.71-7.75l21.96,153.01c-.45,4.91-15.19,9.94-19.6,11.63-1.99.76-4.69.11-5.81.51l-23.1-144.36c-25.19,3.13-50.35,8.09-75.65,10.39-63.49,5.75-131.85,4.01-195-4.77-35.62-4.96-70.66-13-105.17-22.8l-1.82-7.07Z"/>
      <path class="cls-9" d="M1202.18,209.77c52.17,49.97,59.47,127.29,30.54,191.7-.63,1.4.1,2.84-2.23,2.32-8.81-14.16-17.63-28.38-27.37-41.93-9.3-12.95-19.76-26.88-29.81-38.9,9.32-19.89,17.55-41.7,23.01-63.03,4.07-15.89,8.09-33.91,5.86-50.15Z"/>
      <path class="cls-5" d="M899.61,1586.38c1.46-.22,3.29.27,4.85-.29l24.01-6.07c-3.19,9.61-5.36,19.57-7.51,29.45-3.68,16.88-6.65,45.83-12.37,60.38-6.85,17.42-29.08,11.32-42.32,5.31.41-14.95-7.92-23.44-20.15-30.08-7.16-3.89-13.63-2.05-14.64-11.92-1.49-14.65-2.4-29.77-3.47-44.46,5.12.84-.18-6.28,1.17-8.08,20.26,7.95,44.89,11.91,66.47,8.1,2.15-.38,4.63,1.32,3.96-2.33Z"/>
      <path class="cls-5" d="M1244.91,1580.61l3.47.58c-.15,16.97.48,33.92,1.15,50.86.09,2.22-1.19,4.63,2.31,3.99.03.77-.04,1.54,0,2.31l-1.16,16.74,2.32-1.73c.06,1.15-.01,2.31,0,3.46-2.04,1.3-.99,4.75-1.15,6.93-18.72-7.72-52.07-7.4-68.16,6.33-2.53,2.16-2.85,5.64-5.74,5.22l-28.88-79.12,21.14,1.76c3.08,6.61,13.81-.05,15.19-.15,3.38-.26,7.37,1.95,10.23,1.3.84-.19.67-2.07,1.58-2.3,21.56-5.32,27.26-4.05,47.71-16.2Z"/>
      <path class="cls-27" d="M1026.34,346.32c15.41-2.58,77.62,8.62,90.31,17.7,13.43,9.61,6.64,27.8,2.05,41.16s-13.38,29.46-27.39,34.97c-19.76,7.77-67.26.21-76.25-21.89-4.69-11.53-4.91-48.71-2-60.99,1.44-6.11,7.35-9.96,13.29-10.96ZM1033.57,391.09c-2.61,9.04-3.48,13.53-.33,22.85,6.6,19.52,38.46,27.22,48.83,8.33,3.94-3.88,7.82-9.89,9.8-15.03,16.95-43.88-46.88-72.1-58.71-21.74-.39,1.68-1.75,4.5.41,5.59Z"/>
      <path class="cls-24" d="M1122.5,602.43c-.99,10.52,2.39,25.34-2.31,34.65-5.64,11.17-25.84,26.38-36.96,32.34-23.85,12.79-51.67,19.92-78.97,17.18-13.93-1.4-37.96-9.31-38.89-25.81-.14-2.5-.42-12.03,3.52-12.16,1.34,1.18,10.75,5.41,12.96,6.1,39.23,12.2,87.89-13.9,118.6-36.8,5.37-4,11.12-10.26,16.2-13.83,2.04-1.44,3.2-2.12,5.84-1.66Z"/>
      <path class="cls-18" d="M1129.42,981.23c1.17,1.88,5.25,6.86,6.91,8.68,1.85,2.03,8.26,6.58,8.7,7.47,1.21,2.48.79,11.21,2.3,16.18,1.74,5.74,6.63,12.84,11.74,15.97,2.89,1.77,8.09,2.26,8.39,2.58.23.24.09,4.5.94,6.57,1.66,4.02,12.1,11.85,16.21,13.82,10.64,5.09,18.18,4.84,29.12,1.49,2.66,2.92,10.81-4.2,12.7-2.31.25,9.81-.32,19.69,0,29.5.07,2.22-1.18,4.63,2.31,3.99.02.77-.02,1.54,0,2.31-1.12.31-1.08,1.33-1.15,2.31-2.01,26.27,3.11,53.85,4.62,79.69.1,1.68.3,8.61-.14,9.11l-21.72,5.81-5.85-40.92-3.67-63.89c-16.29-5.37-33.93-16.28-44.81-29.67-5.65-6.96-31.22-56.39-31.22-63.48v-22.52l1.43,10.69c.74,2.42,1.86,4.5,3.19,6.63Z"/>
      <path class="cls-12" d="M761.02,1813.89c-12.5-.82-29.48-4.91-39.27-12.7,54.57,8.83,84.91-14.11,132.21-30.05,29.02-9.78,60.89-11.1,87.77-26.55,20.09,30.7-22.59,37.63-44.01,40.28s-32.59,2.2-53.29,9.07c-28.45,9.45-51.83,22.02-83.42,19.95Z"/>
      <path class="cls-18" d="M809.53,812.62c-3.75,22.72-6.08,45.76-8.07,68.73-.67,7.69.92,15.77-2.24,23.17-13.88,7.86-27.85,19.11-42.03,26.1-2.1,1.03-4.02,2.45-6.56,2.09,7.25-13.18.96-27.07-2.31-40.41-.02-.09,1.04-.82.86-1.54-.99-3.91-3.56-9.4-5.27-13.22l.3-2.57c13.52-9.42,24.88-21.32,36.48-32.88,8.64-8.15,16.86-23.8,25.95-30.64,2.62-1.97,1.09-.66,2.89,1.16Z"/>
      <path class="cls-26" d="M1123.65,597.81c-.07.62-.94,2.33-1.15,4.62-2.64-.46-3.8.23-5.84,1.66-5.08,3.57-10.83,9.83-16.2,13.83-30.71,22.9-79.37,49-118.6,36.8-2.21-.69-11.62-4.92-12.96-6.1-.1-.09-1.14-2.18-1.15-2.31-.05-.39,2.15-3.07,0-3.46,1.59-4.59,3.58-9.1,4.63-13.87,55.66,7.26,110.76-14.22,153.01-49.64.91,5.87-1.13,12.88-1.74,18.47Z"/>
      <path class="cls-27" d="M886.9,327.57c16.63-.19,34.7,2.13,50.83,6.35,20.36,5.33,29.47,10.79,27.69,33.48-2.26,28.86-19.68,55.92-51.37,54.86-6.4-.21-33.03-4.7-35.82-10.37l8.67-84.32ZM905.38,400.33c4.48,11.16,23.83,15.13,34.29,10.61,6.43-2.78,13.56-13.29,15.37-19.85,6.58-12.25,4.84-33.6-7-42.08-30.38-21.74-62.79,25.74-42.66,51.32Z"/>
      <path class="cls-38" d="M1266.85,1827.75c4.68,9.57,19.19,12.01,28.87,11.55-22.44,13.06-87.58,12.35-113.59,7.92-5.85-1-12.83-2.76-18.06-5.61,6.33.38,16.38-3.47,20.79-8.07-1.52-.12-3.1.12-4.62-.01,23.15-7.34,32.78-32.78,60.84-20.99,9.41,3.95,15.42,12.56,25.78,15.22Z"/>
      <path class="cls-18" d="M1325.75,891.15c-5.19,6.28-6,9.06-14.21,12.93-13.79,6.48-17,3.57-27.38-5.4-20.33-17.57-39.11-37.28-59.47-54.86l-1.71.56,9.83,19.05c-8.11-6.88-18.51-12.05-24.85-20.77,2.49-3.84,7.72-4.47,11.51-6.44,1.41-.73,2.15-2.7,2.35-2.8.52-.25,1.82.25,2.31,0,.3-.16,1.02.24,1.59,0,1.03-.43.14-2.96,2.35-2.24,9.52,6.32,19.09,15.09,28.75,20.93,19.72,11.92,44.07,20.08,63.5,32.35,3.03,1.91,5.5,2.6,5.43,6.69Z"/>
      <path class="cls-17" d="M950.42,1288.42c9.12,4.92,18.79,8.65,28.71,11.71,2.95,4.62-13.77,61.93-15.46,71.4-2.44,4.28-23.76,6.4-29.41,6.97l-3.25-2.6,19.42-87.48Z"/>
      <path class="cls-8" d="M934.25,1716.88c-.02.36-.06.81,0,1.15.12.75.31,1.27,1.15,1.15.51,5.25-.35,11.15.02,16.51-24.4,13.99-53.9,16.3-80.59,24.76-8.46,2.68-16.32,6.34-24.52,9.55l-2.9-2.32c24.04-19.53,51.03-35.16,76.04-53.31,4.97-3.61,18.18-12.74,21.57-16.53,5-5.59-3.91-14.16-4.36-19.85-.17-2.1,2.57-4.73,2.06-7.31,1.96.54,2.79,2.31,3.43,4.07,4.55,12.41,2.16,29.64,8.11,42.13Z"/>
      <path class="cls-2" d="M700.97,854.19c1.5-2.45,2.7-5.25,3.56-8,4.83-3.45,16.03,16.66,18.16,20.35,6.24,10.82,21.9,44.65,18.72,56.13-.81,2.93-43.83,31.08-49.77,34.78-10.56,6.57-21.68,13.7-33.39,18l-1.7-2.32c9.64-6.23,18.89-13.43,27.66-20.81s23.38-18.49,28.77-28.97c10.62-20.63.36-51.11-12-69.16Z"/>
      <path class="cls-2" d="M807.22,1387.74c.05-1.93-.48-13.89.59-13.88,38.98,13.97,80.3,20.65,121.82,18.5,1.35,1.35-3.08,13.93-3.47,16.16-28.95.95-57.79-2.05-85.71-9.57-10.86-2.92-21.27-7.04-32.09-10.07-.11-.03-.43-1.18-1.15-1.15Z"/>
      <path class="cls-2" d="M1112.1,1400.45l56.81-8.44c11.85-1.41,22.69-6.68,33.89-10,2.16-.64,1.52.33,1.69,1.67.48,3.72-.23,8.25,0,12.15-3.36,6.76-15.67,8.32-22.88,10.04-31.3,7.43-64.02,9.23-96.06,7.28l-1.17-11.54h32.33s-4.61-1.16-4.61-1.16Z"/>
      <path class="cls-32" d="M721.76,1801.19c9.79,7.79,26.77,11.88,39.27,12.7-1.2,1.92-4.38,1.15-6.34,1.17-26.27.32-73.21-3.03-94.04-20.33-7.42-6.16-6.01-10.11-5.92-19.33,10.82-7.03,24.69-2.31,34.08,5.02,13.46,10.51,12.76,17.49,32.94,20.76Z"/>
      <path class="cls-2" d="M1423.92,840.33c-1.09,1.38.69,1.14-1.41,2.6-22.81,15.82-39.65,26.31-57.29,48.99-2.54,3.27-6.93,12.43-8.85,14.26-1.27,1.21-5.93.9-2.9,2.29-.7.13-1.18,1.38-3.84,1.15-3.5-.31-14.81-5.65-14.47-9.61,20.23-28.6,49.37-52.62,82.23-65.26,1.48.29,5.08,4.38,6.53,5.58Z"/>
      <path class="cls-11" d="M1335.92,928.45c6.75-.53,13.97-2.05,18.72,3.69,7.66,9.24,4.17,34.19,7,46.26-.06,5.14-8.1,6.55-12.33,7.32-7.96,1.44-26.13,3.94-29.9-4.49-2.98-6.66-6.07-24.33-7.17-32.09s-3.81-13.81,5.1-17.32c4.29-1.69,13.8-2.99,18.58-3.36ZM1355.62,978.76c-.22-7.89,1.63-37.19-3.24-42.06-3.13-3.12-29.79-.29-32.43,2.34-1.48,1.48-1.16,2.63-1.05,4.46.26,4.08,5.55,35.78,6.82,37.17,3.74,4.09,24.23-.69,29.9-1.92Z"/>
      <path class="cls-26" d="M949.26,258.28l35.17,2.36,7.56-1.2c25.77,2.49,63.19,11.17,86.33,22.77,1.67.84,1.27,3.22,3.75,2.64l-2.27.69c-54.7-16.37-112.25-28.91-168.91-15.37-1.68.4-4.33,1.96-5.52-.33,11.6-7.58,30.17-10.82,43.89-11.55Z"/>
      <path class="cls-3" d="M1352.31,996.25c-1.9,23.71-20.12,30.65-41.56,25.39l7.41-5.85,9.89-16.67,24.26-2.87Z"/>
      <path class="cls-22" d="M1205.65,401.47c-2.68,2.1-28.39-16.19-32.91-18.47l-1.73-27.71c13.26,13.81,25.7,29.04,34.63,46.18Z"/>
      <path class="cls-13" d="M873.04,332.2c-1.73,21.72-3.05,43.57-5.78,65.25-.2,1.58-.66,3.51-2.29,1.73-.88-5.26-2.8-10.27-3.46-15.61-1.48-12.03-.72-35.18,4.94-45.84,1.43-2.7,2.7-6.36,6.59-5.53Z"/>
      <path class="cls-12" d="M1266.85,1827.75c8.89,2.29,24.73-.26,32.96-4.58l12.08-9.27c-1.03,12.29-5.67,19.29-16.17,25.4-9.68.46-24.2-1.98-28.87-11.55Z"/>
      <path class="cls-12" d="M1180.24,1833.52c1.52.13,3.1-.11,4.62.01-4.4,4.6-14.45,8.45-20.79,8.07-10.25-.61-16.73-11.28-16.16-20.79,8.67,9.11,20.12,11.63,32.32,12.7Z"/>
      <path class="cls-22" d="M1171.01,430.35l1.71-28.87c2.18,2.34,16.25,10.66,15.6,13.26l-17.31,15.6Z"/>
      <path class="cls-7" d="M1144.44,1383.12c-7.76,1.34-15.83,2.8-23.69,3.45-19.71,1.64-43.76,1.27-63.37-1.28-2.12-.28-4.9-.66-6.49-2.17,31.79,3.36,62.45,1.65,93.54,0Z"/>
      <path class="cls-31" d="M968.9,648.62c-3.94.12-3.66,9.66-3.52,12.16.92,16.51,24.95,24.42,38.89,25.81,27.3,2.73,55.12-4.4,78.97-17.18-22.55,15.62-56.29,22.83-83.39,18.14-13.26-2.29-36.25-11.93-36.77-27.99-.15-4.61,2.23-9,3.51-13.25h1.15c.02.13,1.06,2.22,1.15,2.31Z"/>
      <path class="cls-31" d="M1451.63,1021.65c-27.69,5.62-55.33,3.11-83.15,0,1.16-1.84,4.46-1.34,6.33-1.16,4.48.43,12.2,2.31,16.19,2.31h45.04c3.92,0,12.01-4.01,15.59-1.15Z"/>
      <path class="cls-8" d="M899.61,1586.38c.66,3.65-1.81,1.95-3.96,2.33-21.58,3.81-46.22-.15-66.47-8.1-1.34,1.81,3.95,8.92-1.17,8.08-.25-3.46.24-6.96-.57-10.4,22.97,9.51,47.73,11.75,72.17,8.09Z"/>
      <path class="cls-6" d="M1233.36,1169.47h-1.15c-1.51-25.84-6.63-53.41-4.62-79.69h1.15c.95,26.58,2.32,53.23,4.62,79.69Z"/>
      <path class="cls-31" d="M808.37,1388.9c1.32,17.08-1.83,36.82.12,53.58.94,8.07,6.04,16.96,10.27,23.8-18.96-19.58-12.18-53.28-11.55-78.53.73-.03,1.05,1.12,1.15,1.15Z"/>
      <path class="cls-31" d="M664.01,854.19c3-1.25,11.16-2.72,7.03-7.61-3.33-3.94-25.41,1.64-31.81,1.88-20.65.8-42.04-4.62-58.37-17.37,5.63.91,6.88,3.86,11.67,6.23,16.52,8.15,35.24,10.16,53.56,8.77,6.32-.48,23.34-6.6,26.61.01,2.32,4.71-4.22,10.34-8.69,8.09Z"/>
      <path class="cls-21" d="M1338.46,916.54c-7.21-.48-13.95,2.12-21.26,1.06-2.48-.36-6.86-1.18-6.45-4.5,9.89.95,20.87-6.97,27.71,3.45Z"/>
      <path class="cls-7" d="M794.51,1251.47c-.04,16.37-4.91,40.55-8.9,57.57-.48,2.03.62,4.32-2.65,3.64l11.55-61.21Z"/>
      <path class="cls-28" d="M1037.03,252.5c1.88.21,3.88-.16,5.77.01v1.13c-.76.06-1.54-.04-2.3.01-1.01.07-2.55.16-3.46,0v-1.15Z"/>
      <path class="cls-28" d="M1037.03,252.5c-.38-.04-.77.04-1.15,0-24.67-2.84-44.67-8.25-70.45-8.08,1.2-1.91,4.38-1.15,6.34-1.17,21.9-.22,44.33,2.97,65.27,9.26Z"/>
      <path class="cls-8" d="M1244.91,1580.61c1.57-.94,2.56-2.66,4.61-2.3-.86,8.56.74,17.02,1.16,25.4-1.8.48-1.73,4.25,0,4.62.45,9.21.75,18.5,1.15,27.72-3.5.64-2.22-1.77-2.31-3.99-.67-16.94-1.3-33.9-1.15-50.86l-3.47-.58Z"/>
      <path class="cls-28" d="M828,193.61l-7.15,13.06c-3.52,9.93-5.46,19.47-4.27,30.12l4.49,15.72c-12.26-20.3-7.13-41.1,6.93-58.9Z"/>
      <path class="cls-31" d="M1236.83,485.79c9.15-18.12,16.7-40.75,3.46-58.9.95.94,2.41,1.42,3.46,2.86,10.86,14.96,4.16,42.61-6.92,56.04Z"/>
      <path class="cls-9" d="M1213.73,1053.98c2.26-.69,13.09-5.43,13.85-4.61,1.46,11.92.78,23.83,1.16,35.8-3.49.64-2.24-1.77-2.31-3.99-.33-9.81.25-19.7,0-29.5-1.89-1.89-10.04,5.23-12.7,2.31Z"/>
      <path class="cls-31" d="M914.62,1570.21c-15.08,4.54-32.79,5.7-48.5,4.62l48.5-4.62Z"/>
      <path class="cls-31" d="M1100.55,451.14c-11.61,7.54-27.39,6.43-41.02,5.77-2.83-.14-3.78.84-1.72-2.31,14.83,1.75,28.48,2.18,42.73-3.46Z"/>
      <path class="cls-31" d="M1008.16,616.29c-11.32,1.19-20.99,1.45-32.34,0,1.2-1.91,4.38-1.15,6.34-1.17,8.34-.09,18.06-.86,26,1.17Z"/>
      <path class="cls-2" d="M991.99,259.43l-7.56,1.2-35.17-2.36c13.99-.75,28.83-.19,42.73,1.15Z"/>
      <path class="cls-28" d="M963.12,244.42c-14.23.33-27.56,2.27-41.58,4.62,8.78-2.73,17.9-5.04,27.15-5.76,4.15-.32,10.67-.78,14.42,1.14Z"/>
      <path class="cls-31" d="M665.17,926.95c-.85-.54-1.72-.53-2.1-1.89l-5.98-40.84c4.63,13.82,6.55,28.29,8.08,42.73Z"/>
      <path class="cls-28" d="M1047.43,255.97c1.17-2.26,3.84-.76,5.52-.34,16.43,4.14,31.89,11.42,47.03,18.81l-.59-4.61c1.35,1.32,2.06,1.64,3.46,3.46l-1.14.59c-.08,3.89,2.06.55,2.3.57,3.22.27,7.84,6.54,10.39,8.67.18.86-1.18.78-1.71.56-3.52-1.48-9.29-6.38-13.44-8.51-16.71-8.55-33.9-13.97-51.83-19.2Z"/>
      <path class="cls-31" d="M545.06,876.13c-.73-11.54-.53-26.49,0-38.11,1.91,1.2,1.15,4.38,1.17,6.34.09,8.46.1,16.98,0,25.44-.02,1.95.74,5.14-1.17,6.34Z"/>
      <path class="cls-31" d="M669.79,893.46c3.64-.66,1.97,1.8,2.33,3.96,1.23,7.43,1.5,14.46,1.13,22.04-.14,2.83.84,3.78-2.31,1.72,1.97-10.47.69-17.49-1.15-27.72Z"/>
      <path class="cls-31" d="M1120.19,637.08c4.7-9.31,1.32-24.12,2.31-34.65.22-2.29,1.09-4,1.15-4.62-2.04,12.64,4.58,28.89-3.46,39.27Z"/>
      <path class="cls-31" d="M998.92,379.54c.15,8.22.4,17.26,0,25.41-.06,1.29.8,3.76-1.14,3.46l-.02-32.9c1.84-1.99,1.15,3.42,1.16,4.04Z"/>
      <path class="cls-31" d="M997.77,361.06c-6.08-1.62-12.01-4.19-18.48-3.47-.1,3.65.15,7.34,0,10.99-.11,2.84.81,3.77-2.31,1.71.39-2.58,1.19-12.62,2.24-13.35,7.52-1.59,12.89-.37,18.55,4.11Z"/>
      <path class="cls-31" d="M1362.71,1002.02c3.45,3.18-6.28,15.85-4.61,17.32,2.03.76,8.83-2.1,8.08,2.32-3.45-.44-6.9-1.14-10.39-1.16,2.63-6.01,4.55-12.38,6.92-18.47Z"/>
      <path class="cls-8" d="M1253,1653.36l-2.32,1.73,1.16-16.74c.24,5.08.9,10.02,1.15,15.01Z"/>
      <path class="cls-7" d="M779.5,1332.31c0,.16,1.29.27,1.25,2.86-.04,3.11-1.8,5.91-1.11,9.06l4.48,4.25c-1.16-.77-6.81-2.99-7-4.22l2.39-11.95Z"/>
      <path class="cls-7" d="M782.96,1314.99c-.01.15,1.29.12,1.21,2.82-.08,2.4-.83,8.92-3.52,7.58.17-2.69,2.57-7.16,2.31-10.39Z"/>
      <path class="cls-8" d="M1253,1656.83c.02,2.69,0,5.4-.01,8.08-1.27.2-1.07-1.12-1.14-1.15.17-2.18-.89-5.63,1.15-6.93Z"/>
      <path class="cls-7" d="M1152.52,1380.81c-1.12.96-4.55,2.24-5.77,2.31v-2.31c1.91-.1,3.85.09,5.77,0Z"/>
      <path class="cls-7" d="M780.65,1326.53c0,.24,2.24,2.41,1.15,4.61h-2.31c-.02-.69,1.68-3.14,1.15-4.61Z"/>
      <path class="cls-7" d="M795.67,1244.54c.01.24,2.24,2.44,1.15,4.61h-2.31c0-.76,1.68-3.11,1.15-4.61Z"/>
      <path class="cls-7" d="M796.82,1237.61l1.15,4.61h-2.31c.02-.62.95-2.99,1.15-4.61Z"/>
      <path class="cls-5" d="M1250.69,1608.32c-1.73-.37-1.8-4.14,0-4.62.08,1.53-.07,3.09,0,4.62Z"/>
      <path class="cls-24" d="M967.74,646.32h-1.15c.36-1.2.75-2.29,1.15-3.46,2.15.4-.05,3.07,0,3.46Z"/>
      <path class="cls-7" d="M1158.3,1380.81c-1.46.19-3.11-.1-4.62,0,.37-1.73,4.14-1.8,4.62,0Z"/>
      <path class="cls-34" d="M1104.02,274.45c-.23-.02-2.37,3.32-2.3-.57l1.14-.59c.32.41.84.72,1.15,1.15Z"/>
      <path class="cls-9" d="M1228.74,1089.79h-1.15c.07-.98.03-2,1.15-2.31.02.77-.03,1.54,0,2.31Z"/>
      <path class="cls-16" d="M935.41,1719.19c-.84.12-1.03-.41-1.15-1.15.54.12,1.1.63,1.15,1.15Z"/>
      <path class="cls-13" d="M922.72,976.6c2.37-1.33,2.9-7.28,3.31-9.95,2.76-18.18,2.82-36.93,4.7-55.21-1.84-12.27-20.39-2.42-21.86-14.04-1.92-15.23,14.32-8.77,22.44-8.5s32.9-2.07,37.63,2.79c3.5,3.6,2.81,9.76-1.11,12.84-4.43,3.49-9.65.46-14.3,1.87-4.7,1.42-5.78,16.71-6.43,21.29-3.19,22.5-2.77,50.75-7.58,72.11-3.07,13.66-20.31,13.26-26.28,3.04-7.4-12.65-15.32-39.63-20.58-54.48-4.24-11.96-8.9-23.98-11.54-36.39l-2.29,13.28-5.77,58.78c.88,9.76,17.92,4.34,19.59,15.22,1.92,12.54-13.48,5.45-20.14,5.06s-14.18-.1-20.88,0c-6.85.1-18.47,3.87-17.93-8.59.58-13.6,16.84-4,20.59-7.81l8.33-82.26c-2.04-9.28-16.29-3.52-18.99-9.87-3.33-7.84,2.88-12.85,10.31-12.72,7.83.14,24.13,2.32,32.28,3.61,2.07.33,4.22.79,5.82,2.27l30.68,87.7Z"/>
      <path class="cls-13" d="M1023.18,909.63c-1.53,1.47,14.09,33.18,16.06,37.66.48,1.1-.67,2.02,1.82,1.6,3.53-7.53,23.66-27.92,24.82-34.16.17-.89.24-1.82-.07-2.7-1.75-2.61-16.57,2.26-14.89-10.96,1.53-12.09,18.49-5.54,25.91-5.25,6.58.25,27.2-1.41,31.3,1.04s3.81,10.67,1.05,13.89c-4.33,5.05-14.26-.12-19.11,3.99-9.75,16.05-34.7,37.09-40.57,54.13-1.59,4.61-5.12,29.01-.19,30.7,9.68.76,20.77-3.51,17.5,10.88-2.3,10.15-22.4,3.49-30.3,3.08-8.92-.47-19.96,1.65-27.62,1.16-6.8-.44-10.03-5.26-8.55-11.84,2.58-11.48,18.14-.73,22.21-6.67,2.74-4.01,3.73-26.35,2.69-31.43-.91-4.44-24.33-45.58-28.11-50.42-7.24-9.26-10.85-3.44-16.64-7.61s-3.44-12.17,2.89-14.38l51.69,1.37c14.09,8.18.32,19.45-11.87,15.93Z"/>
      <path class="cls-13" d="M942.06,742.44c2.38,2.38,2.13,9.5-.78,11.95-5.6,4.72-15.87-2.74-19.17,6.24-3.13,8.5-4.93,26.88-6.17,36.56-.98,7.65-5.75,49.84-3.12,53.61l16.85,2.78.56,11.01c-3.01,5.11-26.34.38-32.36,0-9.86-.62-34.36,4.85-28.92-11.63,2.98-9.03,17.52-.85,20.3-5.36l12.67-89.85-1.08-2.38c-3.38-2.36-16.71,3.03-17.36-6.93-.98-15.01,19.64-7.74,28.21-7.39,5.54.23,27.69-1.31,30.38,1.38Z"/>
      <path class="cls-19" d="M1224.12,833.4c-.49.25-1.79-.25-2.31,0-2.1-4.8-3.09-11.46-3.45-16.76-2.26-33.33,3.95-68.89,15.58-99.9l-9.82,116.65Z"/>
      <path class="cls-4" d="M1041.65,1051.67c-7.14,3.09-11.18-5.72-15.58-5.69-14.78.11-9.32,31.49,3.98,21.22,3.49-2.69.47-7.21,10.45-5.14,1.54,14.5-19.13,18.05-27.78,9.87-5.75-5.44-5.8-15.93-3.17-22.91,5.46-14.46,30.72-13.88,32.09,2.64Z"/>
      <path class="cls-4" d="M847.64,1030.88v12.71c6.09-5.4,7-13.92,17.31-11.54.76,5.22-9.43,11.18-9,15.41l10.15,19.23c-12.91,2.74-12.36-8.84-19.06-16.16l-1.85,14.88-7.97.13,2.33-34.64,8.08-.02Z"/>
      <path class="cls-4" d="M1005.85,1063.22h-18.48l3.08,4.49c3.96.33,7.21-1.28,11.34-1.06,1.56.09,3.56-.74,2.88,1.74-2.58,9.42-25.77,9.04-25.42-6.85.46-21.22,30.46-19.32,26.6,1.68ZM997.76,1057.44c.04-5.43-7.5-6.11-9.22-1.71-1.26,3.22,7.93,1.18,9.22,1.71Z"/>
      <path class="cls-4" d="M876.51,1040.13v19.06c11.07,7.97,7.66-11.29,9.24-17.91l7.01.51,1.19,4.69c-1.7,3.72-.31,19.45-2.34,20.86-3.61,2.52-7.53-1.37-8.74-1.37-.74,0-2.06,1.64-3.5,1.82-17.31,2.15-10.51-17.05-10.94-27.66h8.09Z"/>
      <path class="cls-4" d="M1086.68,1051.68l2.33,15c3.65-2.08,4.14-12.81,6.89-14.45,1.89-1.12,4.8-.44,6.95-.55.03.93.08,1.88-.05,2.82-.4,2.84-10.32,25.87-12.14,28.29-2.89,3.84-12.7,7.72-13.28,1.8s6.9-2.49,6.99-6.85l-6.91-26.05h9.22Z"/>
      <path class="cls-4" d="M956.19,1069.58c-1.1,3.55-7.59.74-9.82.8-5.37.15-11.69,3.59-14.71-3.99-2.8-7.01,1.17-14.44.27-21.65h8.1c1.66,5.21-4.01,19.95,3.04,20.45,7.41.53,4.46-14.33,5.03-19.3h8.09v23.68Z"/>
      <path class="cls-13" d="M1069.38,1044.74l-.02,6.94h4.64s0,5.77,0,5.77h-5.79s-.07,13.22-.07,13.22l3.41.71.14,5.7c-20.94,2.3-9.32-10.77-11.5-18.83-.37-1.36-5.26-1.57-2.13-7.58l3.32-.79-.09-5.15h8.1Z"/>
      <path class="cls-13" d="M922.71,1037.81v6.94c4.95-2.65,4.9,1.77,4.62,5.77l-4.77.67-1.02,12.04h4.64c-.1,1.29.26,2.82,0,4.03-.69,3.12-2.14,3.1-5.18,2.97-11.28-.48-6.49-12.01-7.44-19.21-.17-1.31-7.16-7.69.94-7.5l.12-5.72h8.1Z"/>
      <path class="cls-13" d="M906.54,1033.19l-1.32,33.91c-.81,2.63-6.14,2.63-7.42.81l.64-34.72h8.1Z"/>
      <path class="cls-4" d="M970.08,1049.37l8.06-2.32-1.09,7.58c-14.69-1.56-1.22,22.95-15.73,16.75l.64-25.48c3.56,0,7.81-1.19,8.11,3.47Z"/>
      <path class="cls-4" d="M1054.36,1050.52l-2.86,25.44c-1.49,2.28-5.17.05-7.39-.17l1.18-23.38,1.73-1.73,7.35-.17Z"/>
      <path class="cls-4" d="M1108.35,1071.59c4.64,4.63-1.74,12.36-7.33,7.91-5.54-4.41,1.99-13.25,7.33-7.91Z"/>
      <rect class="cls-20" x="1046.27" y="1041.28" width="8.1" height="6.94"/>
      <path class="cls-19" d="M1078.62,490.41c-2.89,46.68-54.66,100.13-103.91,83.69-27.24-9.09-41.79-46.41-41.77-73.14-6.38-2.95-21.35-4.05-15.86-13.87,2.69-1.72,20.56,5.39,25.02,6.44,31.92,7.48,77.3,9.07,108.79-.24,4.63-1.37,16.24-5.31,19.62-8.1s-6.8-4.47-8.51-5.31c-2.35-1.15-5.94-2.68-3.49-5.72,9.34-3.34,22.2,1.15,27.57,9.36,1.21,1.86,8.86,19.85,3.51,19.56-1.07-1.02-8.69-15.38-10.97-12.67ZM943.49,504.27c2.01,24.52,38.9,24.15,57.21,23.14,19.13-1.05,59.89-5.59,62.88-28.92-38.6,13.93-80.12,12.05-120.09,5.78ZM982.76,556.24c-.9.85-1.43,1.26-2.31,2.31-.83,1-3.13,1.19-2.28,3.98,1.23,3.92,19.61,3.29,23.52,2.83,6.65-.78,28.84-9.62,32.5-14.85.58-.83,1.26-2.08-.08-2.33-16.23-4.03-38.74-3.83-51.35,8.07Z"/>
      <path class="cls-19" d="M1233.36,449.99l-1.71,4.61c-10.4-11.17-22.22-3.94-29.46,6.38-.8,2.01,4.3,2.61,6.04,4.01,10.01,7.97,6.16,24.69-6.05,28.89-1.94.67-3.53,1.62-5.77,1.15-1.53-1.28,5.47-6.78,6.25-8.17,3.61-6.41,1.5-16.56-6.75-16.06-7.55.46-9.13,15.18-16.83,14.99-3.26-3.38,9.14-23.24,11.76-26.92,7.31-10.28,22.69-27.73,36.17-18.12,4.38,3.12,5.03,7.87,6.34,9.25Z"/>
      <path class="cls-26" d="M1202.18,493.87c12.22-4.2,16.07-20.92,6.05-28.89-1.75-1.39-6.84-2-6.04-4.01,7.24-10.32,19.06-17.55,29.46-6.38l1.71-4.61c.71.74,4.12-.52,3.26,6.04-1.15,8.73-16.03,26.38-22.3,33.24-1.7,1.86-11.68,12.24-12.74,12.68-4.01,1.66.72-7.27.59-8.07Z"/>
      <path class="cls-19" d="M1214.65,1746.1c13.8-1.17,32.07-.93,45.5,2.31,5.17,1.25,14.67,3.49,12.34,10.47-1.2,2.64-4.91,2.05-7.41,1.94-8.24-.35-17.96-3.1-26.54-3.51-18.64-.89-37.03,2.47-55.28,5.67-9.98-13.04,23.29-16.2,31.38-16.88Z"/>
      <path class="cls-19" d="M1258.77,1727.27c4.3,1.13,11.06,4.27,9.11,9.67-1.34,3.95-10.57,1.01-13.72.73-11.96-1.08-24.87-2.01-36.96-1.15-5.32.38-28.64,5.95-31.01,4.45-5.14-8.53,8.46-12.24,14.84-13.69,2.61-.59,13.48-2.31,15.59-2.31h27.72c1.85,0,12.17,1.72,14.44,2.31Z"/>
      <path class="cls-19" d="M1261.89,1709.12c1.42,1.72,2.25,6.08,1,7.83-1.97,2.77-19.15-2.06-23.19-2.37-9.64-.74-21.28,0-30.85,1.46-5.36.82-13.28,4.07-17.8,4.26-6.59.28-2.78-6.78-.26-9.61,6.74-7.56,39.73-8.38,49.92-7.53,4.58.38,18.41,2.6,21.17,5.95Z"/>
      <path class="cls-23" d="M1201.03,1727.27c1.38-1.67,3.39-1.82,5.35-2.16,14.48-2.55,34.58-1.97,49.17.2.5.07,6.39.72,3.23,1.96-2.26-.59-12.58-2.31-14.44-2.31h-27.72c-2.11,0-12.98,1.72-15.59,2.31Z"/>
      <path class="cls-23" d="M1254.15,1737.67l-6.2,1.03-30.76-2.18c12.09-.86,24.99.08,36.96,1.15Z"/>
      <path class="cls-19" d="M1047.12,285.11c20.86-3.84,52.66,14.35,62.87,32.45,2.07,3.68,8.94,19.25.63,17.93-1.53-.24-15.25-11.32-18.95-13.47-9.55-5.55-22.65-10.8-33.56-12.64-4.61-.78-21.95-.91-24.06-2.5-4.02-3.03,2.72-15.66,6.04-18.41,1.76-1.45,4.78-2.95,7.03-3.37Z"/>
      <path class="cls-19" d="M897.31,309.09c2.28-13.8,11.95-29.81,25.08-35.54,12-5.24,39.38-7.48,43.66,8.95.78,2.99,1.75,13.91-1.36,14.93-2.88.94-19.77-4.27-25.25-4.49-16.28-.63-29.79,6.44-42.13,16.15Z"/>
      <path class="cls-10" d="M1082.07,422.27c-10.37,18.88-42.23,11.19-48.83-8.33-3.15-9.31-2.28-13.81.33-22.85,3.37-11.68,10.75-22.36,23.77-24.15,31.48-4.33,36.41,34.08,24.73,55.33ZM1065.61,379.78c-18.24,3.59-20.94,45.21-1.41,46.03,22.38.94,24-50.47,1.41-46.03Z"/>
      <path class="cls-19" d="M1082.07,422.27c11.68-21.25,6.75-59.66-24.73-55.33-13.02,1.79-20.4,12.47-23.77,24.15-2.16-1.09-.8-3.91-.41-5.59,11.83-50.37,75.66-22.14,58.71,21.74-1.98,5.14-5.87,11.15-9.8,15.03Z"/>
      <path class="cls-10" d="M955.04,391.09c-1.82,6.56-8.94,17.07-15.37,19.85-10.46,4.52-29.81.55-34.29-10.61-6.16-15.34,4.78-45.17,22.79-48.23,24.07-4.09,32.34,19.25,26.87,38.99ZM933.94,364.79c-18.6,3.83-19.84,44.92-.26,44.89,22.03-.04,24.12-49.79.26-44.89Z"/>
      <path class="cls-19" d="M955.04,391.09c5.47-19.74-2.8-43.08-26.87-38.99-18.01,3.06-28.95,32.89-22.79,48.23-20.14-25.58,12.28-73.06,42.66-51.32,11.85,8.48,13.59,29.83,7,42.08Z"/>
      <path class="cls-19" d="M1355.62,978.76c-5.66,1.23-26.15,6-29.9,1.92-1.28-1.39-6.56-33.09-6.82-37.17-.12-1.83-.44-2.98,1.05-4.46,2.64-2.63,29.3-5.46,32.43-2.34,4.88,4.87,3.02,34.17,3.24,42.06ZM1345.26,945.55l-18.36,1.03,5.81,28.83,17.29-2.29-4.75-27.58Z"/>
      <path class="cls-6" d="M1072.99,791.68l9.16.66c2.17,1.53.34,6.38,1.24,7.43.42.5,3.84.1,5.1,2.45.89,1.66-1.21,15.26-2.42,17.28-1.89,3.17-4.67,1.63-6.07,2.59-.88.61-2.02,6.28-2.59,7.85l-9.06-2.18c-11.82,22.29-42.93,26.54-59.62,6.81-5.31-6.27-4.04-11.78-14.5-10.9l-1.13-6.38-5.57-1.94c-.11-6.3-1.12-13,1.57-18.91l7.52-1.14c-1.49-10.32,5.27-6.4,9.23-8.67.82-.47,6.59-9.45,9.85-12.1,19.78-16.09,51.06-8.32,57.29,17.14ZM1060.87,778.38c-14.69-14.73-41.38-9.13-51.04,8.76-4.32,8-7.97,29.32-3.42,37.03,1.19,2.02,1.39.51,2.35.03,10.29-5.13,3.96-9.86,5.45-18.83,3.55-21.34,35-26.45,43.49-7.09,4.26,9.72.86,16.54-3.33,25.33l7.46,7.48c10.37-13.84,11.74-39.99-.97-52.72ZM1003.54,790.68l-3.48.76-3.44,29.26h4.61c.35-5.85-.47-12.1.02-17.89.2-2.35,3.18-11.27,2.29-12.13ZM1035.61,790.97c-3.79.5-7.37,2.25-10.1,4.9l24.69,23.63c10-12.3,3.07-30.87-14.58-28.53ZM1073.99,795.29v16.75c0,1.7-4.07,12.75-3.46,13.27,1.45-.08,3.45.4,4.69-.49,2.61-1.88,3-24.44,4.56-28.93l-5.79-.59ZM995.45,798.76c-8.31-.67-2.48,10.3-5.77,15l4.61.02,1.15-15.01ZM1047.43,824.15c.51-1.99-.84-2.31-1.72-3.46-2.81-3.66-17.26-18.38-20.76-20.82-3.83-2.67-5.56,3.44-6.11,6.66-3.26,19.1,13.51,23.85,28.59,17.61ZM1085.53,803.38h-3.45s-2.31,15.01-2.31,15.01l3.56-.66,2.2-14.34ZM1017.02,823.17l-7.66,6.11c12.07,16.25,34.76,18.6,49.6,4.7l-7.65-7.39c-7.35,5.12-19.54,6.67-27.38,2.02-2.18-1.3-4.82-5.64-6.9-5.44Z"/>
      <path class="cls-6" d="M997.76,1057.44c-1.29-.53-10.48,1.51-9.22-1.71,1.72-4.4,9.26-3.72,9.22,1.71Z"/>
      <path class="cls-10" d="M943.49,504.27c39.97,6.27,81.49,8.15,120.09-5.78-2.99,23.33-43.75,27.87-62.88,28.92-18.31,1.01-55.2,1.38-57.21-23.14Z"/>
      <path class="cls-33" d="M982.76,556.24c12.6-11.9,35.12-12.1,51.35-8.07,1.34.25.66,1.5.08,2.33-3.66,5.24-25.84,14.08-32.5,14.85-3.91.46-22.28,1.09-23.52-2.83-.85-2.78,1.45-2.98,2.28-3.98l.58,2.31c1.11-1.25,2.09-2.57,3.76-3.17,8.97-3.21,23.93-6.91,33.32-8.26,3.19-.46,6.49.04,9.69-.13.1-1.7-4.14-2.03-5.33-2.16-13.17-1.4-28.3,2.78-39.71,9.1Z"/>
      <path class="cls-19" d="M1065.61,379.78c22.59-4.44,20.97,46.97-1.41,46.03-19.53-.82-16.84-42.45,1.41-46.03ZM1070.14,391.21c-4.58,1.48-3.65,12,3.04,10.1,5.63-1.59,3.42-12.19-3.04-10.1Z"/>
      <path class="cls-19" d="M933.94,364.79c23.85-4.91,21.76,44.85-.26,44.89-19.57.03-18.34-41.06.26-44.89ZM946.78,376.24c-1.93-.91-5.92-2.41-7.39-.23-3.19,11.98,9.66,12.61,7.39.23Z"/>
      <polygon class="cls-21" points="1345.26 945.55 1350.01 973.14 1332.72 975.42 1326.91 946.59 1345.26 945.55"/>
      <path class="cls-4" d="M1060.87,778.38c12.7,12.73,11.33,38.87.97,52.72l-7.46-7.48c4.19-8.79,7.59-15.61,3.33-25.33-8.49-19.36-39.94-14.26-43.49,7.09-1.49,8.97,4.83,13.7-5.45,18.83-.96.48-1.16,1.99-2.35-.03-4.55-7.71-.9-29.04,3.42-37.03,9.66-17.9,36.35-23.49,51.04-8.76Z"/>
      <path class="cls-13" d="M1017.02,823.17c2.08-.2,4.72,4.14,6.9,5.44,7.84,4.65,20.03,3.09,27.38-2.02l7.65,7.39c-14.84,13.9-37.53,11.55-49.6-4.7l7.66-6.11Z"/>
      <path class="cls-13" d="M1035.61,790.97c17.65-2.34,24.59,16.23,14.58,28.53l-24.69-23.63c2.74-2.65,6.32-4.4,10.1-4.9Z"/>
      <path class="cls-13" d="M1047.43,824.15c-15.07,6.24-31.85,1.49-28.59-17.61.55-3.23,2.28-9.33,6.11-6.66,3.5,2.44,17.95,17.15,20.76,20.82.88,1.15,2.23,1.47,1.72,3.46Z"/>
      <path class="cls-4" d="M1073.99,795.29l5.79.59c-1.56,4.49-1.95,27.05-4.56,28.93-1.25.9-3.24.42-4.69.49-.61-.52,3.46-11.57,3.46-13.27v-16.75Z"/>
      <path class="cls-4" d="M1003.54,790.68c.89.86-2.09,9.78-2.29,12.13-.49,5.79.34,12.05-.02,17.89h-4.61s3.44-29.26,3.44-29.26l3.48-.76Z"/>
      <path class="cls-4" d="M995.45,798.76l-1.15,15.01-4.61-.02c3.29-4.7-2.54-15.67,5.77-15Z"/>
      <polygon class="cls-4" points="1085.53 803.38 1083.33 817.72 1079.77 818.38 1082.08 803.37 1085.53 803.38"/>
      <path class="cls-18" d="M982.76,556.24c11.41-6.32,26.54-10.5,39.71-9.1,1.19.13,5.42.45,5.33,2.16-3.2.18-6.5-.32-9.69.13-9.39,1.35-24.35,5.04-33.32,8.26-1.67.6-2.65,1.92-3.76,3.17l-.58-2.31c.88-1.05,1.41-1.46,2.31-2.31Z"/>
      <path class="cls-13" d="M1070.14,391.21c6.46-2.09,8.67,8.51,3.04,10.1-6.69,1.89-7.62-8.62-3.04-10.1Z"/>
      <path class="cls-10" d="M946.78,376.24c2.27,12.37-10.59,11.74-7.39-.23,1.48-2.18,5.46-.68,7.39.23Z"/>
      <g>
        <path class="cls-1" d="M943.07,1065.19c-7.06-.5-1.38-15.24-3.04-20.45h-8.1c.9,7.21-3.07,14.64-.27,21.65,3.02,7.58,9.34,4.15,14.71,3.99,2.23-.06,8.72,2.74,9.82-.81v-23.67h-8.09c-.57,4.97,2.38,19.82-5.03,19.29Z"/>
        <path class="cls-1" d="M922.71,1044.75v-6.94s-8.1,0-8.1,0l-.12,5.72c-8.1-.19-1.11,6.19-.94,7.5.94,7.2-3.84,18.73,7.44,19.21,3.04.13,4.48.15,5.18-2.97.27-1.21-.1-2.74,0-4.04h-4.64s1.02-12.03,1.02-12.03l4.77-.67c.28-3.99.33-8.42-4.62-5.77Z"/>
        <path class="cls-1" d="M967.83,904.52c3.92-3.08,4.62-9.24,1.11-12.84-4.73-4.86-29.68-2.53-37.63-2.79-8.13-.27-24.37-6.73-22.44,8.51,1.47,11.63,20.02,1.77,21.86,14.04-1.88,18.29-1.94,37.04-4.7,55.21-.41,2.67-.94,8.62-3.31,9.95l-30.68-87.7c-1.6-1.48-3.75-1.94-5.82-2.27-8.15-1.29-24.45-3.47-32.28-3.61-7.43-.13-13.64,4.87-10.31,12.72,2.69,6.34,16.95.59,18.99,9.87l-8.33,82.26c-3.75,3.82-20.01-5.79-20.59,7.81-.53,12.46,11.09,8.69,17.93,8.59,6.7-.1,14.28-.37,20.88,0,6.66.38,22.06,7.47,20.14-5.06-1.67-10.88-18.72-5.45-19.59-15.22l5.77-58.78,2.29-13.28c2.64,12.41,7.3,24.43,11.54,36.39,5.26,14.85,13.19,41.84,20.58,54.48,5.98,10.22,23.21,10.62,26.28-3.04,4.8-21.36,4.39-49.61,7.58-72.11.65-4.58,1.73-19.86,6.43-21.29,4.65-1.41,9.87,1.62,14.3-1.87Z"/>
        <path class="cls-1" d="M897.8,1067.91c1.28,1.83,6.61,1.82,7.42-.81l1.32-33.91h-8.1l-.64,34.72Z"/>
        <path class="cls-1" d="M885.74,1041.28c-1.57,6.62,1.83,25.88-9.24,17.91v-19.06h-8.09c.43,10.61-6.37,29.8,10.94,27.66,1.44-.18,2.76-1.82,3.5-1.82,1.21,0,5.12,3.89,8.74,1.37,2.02-1.41.64-17.14,2.34-20.86l-1.18-4.69-7.01-.51Z"/>
        <path class="cls-1" d="M961.96,1045.89l-.64,25.48c14.51,6.2,1.04-18.31,15.73-16.75l1.09-7.58-8.06,2.32c-.3-4.66-4.56-3.47-8.11-3.47Z"/>
        <path class="cls-1" d="M897.86,864.6c6.02.38,29.35,5.11,32.36,0l-.56-11.01-16.85-2.78c-2.62-3.77,2.14-45.96,3.12-53.61,1.24-9.68,3.05-28.06,6.17-36.56,3.3-8.98,13.57-1.52,19.17-6.24,2.91-2.45,3.16-9.57.78-11.95-2.69-2.69-24.83-1.15-30.38-1.38-8.57-.35-29.18-7.62-28.21,7.39.65,9.95,13.98,4.56,17.36,6.93l1.08,2.38-12.67,89.85c-2.78,4.51-17.33-3.67-20.3,5.36-5.44,16.48,19.06,11.01,28.92,11.63Z"/>
        <path class="cls-1" d="M864.95,1032.05c-10.31-2.37-11.22,6.15-17.31,11.54v-12.71s-8.09.02-8.09.02l-2.33,34.64,7.97-.13,1.85-14.88c6.69,7.32,6.14,18.9,19.06,16.16l-10.15-19.23c-.43-4.23,9.76-10.19,9-15.41Z"/>
        <path class="cls-1" d="M1102.86,1051.68c-2.15.11-5.07-.57-6.95.55-2.75,1.64-3.24,12.37-6.89,14.45l-2.33-15h-9.22s6.91,26.05,6.91,26.05c-.09,4.36-7.57.94-6.99,6.85.58,5.92,10.39,2.04,13.28-1.8,1.82-2.42,11.74-25.45,12.14-28.29.13-.94.08-1.88.05-2.82Z"/>
        <path class="cls-1" d="M1101.02,1079.5c5.6,4.45,11.97-3.27,7.33-7.91-5.34-5.34-12.87,3.5-7.33,7.91Z"/>
        <path class="cls-1" d="M1069.38,1044.74h-8.1s.09,5.15.09,5.15l-3.32.79c-3.13,6.02,1.76,6.22,2.13,7.58,2.18,8.05-9.44,21.13,11.5,18.83l-.14-5.7-3.41-.71.07-13.23h5.79s0-5.78,0-5.78h-4.64s.02-6.93.02-6.93Z"/>
        <path class="cls-1" d="M1108.13,896.85c-4.1-2.45-24.72-.78-31.3-1.04-7.42-.29-24.38-6.84-25.91,5.25-1.67,13.22,13.14,8.35,14.89,10.96.31.87.24,1.8.07,2.7-1.16,6.24-21.29,26.63-24.82,34.16-2.49.42-1.34-.5-1.82-1.6-1.97-4.48-17.59-36.19-16.06-37.66,12.2,3.52,25.96-7.74,11.87-15.93l-51.69-1.37c-6.33,2.21-8.89,10.06-2.89,14.38,5.8,4.17,9.4-1.65,16.64,7.61,3.78,4.84,27.2,45.98,28.11,50.42,1.04,5.08.06,27.42-2.69,31.43-4.06,5.94-19.63-4.81-22.21,6.67-1.48,6.58,1.75,11.4,8.55,11.84,7.66.49,18.7-1.63,27.62-1.16,7.91.41,28,7.06,30.3-3.08,3.27-14.38-7.82-10.12-17.5-10.88-4.93-1.69-1.4-26.09.19-30.7,5.87-17.05,30.81-38.08,40.57-54.13,4.85-4.11,14.78,1.06,19.11-3.99,2.77-3.22,2.89-11.54-1.05-13.89Z"/>
        <path class="cls-1" d="M979.26,1061.54c-.34,15.89,22.85,16.27,25.42,6.85.68-2.48-1.32-1.65-2.88-1.74-4.13-.23-7.38,1.38-11.34,1.06l-3.08-4.49h18.48c3.86-21-26.14-22.89-26.6-1.68Z"/>
        <path class="cls-1" d="M1026.07,1045.98c4.4-.03,8.44,8.78,15.58,5.69-1.37-16.52-26.63-17.09-32.09-2.64-2.64,6.98-2.59,17.47,3.17,22.91,8.65,8.17,29.32,4.63,27.78-9.87-9.98-2.07-6.96,2.44-10.45,5.14-13.3,10.26-18.76-21.11-3.98-21.22Z"/>
        <rect class="cls-1" x="1046.27" y="1041.28" width="8.1" height="6.94"/>
        <path class="cls-1" d="M1045.28,1052.41l-1.18,23.38c2.23.21,5.9,2.44,7.39.17l2.86-25.44-7.35.17-1.73,1.73Z"/>
        <path class="cls-9" d="M1299.74,692.54c-19.34-16.22-43.38-25.19-66.93-33.54-31.09-11.02-63.19-19.03-94.64-28.89-23.81,53.08-101.42,85.39-156.04,65.91-21.31-7.6-39.25-27.57-28.25-50.85-41.15,8.35-86.34,10.68-122.31,34.16-18.95,12.37-35.14,30.12-53.22,43.79,14.91,5.14,34.36,7.5,36.85,26.65,2.34,17.95-9.56,29.22-26.98,29.4l-57.22-10.42c6.92,10.04,6.18,24.41-1.35,33.86-2,2.51-7.25,5.77-7.72,7.37-.8,2.69,1.18,6.88.72,10.98-.62,5.54-4.23,10.39-6.33,15.36,14.2,16.33,25.12,35.43,32.01,56-.02-.09,1.04-.82.86-1.54-.99-3.91-3.56-9.4-5.27-13.22l.3-2.57c13.52-9.42,24.88-21.32,36.48-32.88,8.64-8.15,16.86-23.8,25.95-30.64,2.62-1.97,1.09-.66,2.89,1.16,3.26-19.78,7.58-39.5,13.55-58.63,3.04-9.74,9.07-29.3,14.98-36.92.74-.95.84-3.26,2.66-.87-5.2,21.98-10.64,43.93-14.66,66.18-19.22,106.2-11.21,213.81-22.45,320.55-2.29,21.71-8.3,47.23-9.14,68.34-.08,1.92-.2,3.02,1.19,4.57,4.2,4.69,43.54,14.23,51.96,16.17,87.58,20.1,188.55,22.9,277.61,11.96,37.15-4.56,74.17-12.54,109.29-25.28-1.24-3.16-.89-6.08-1.16-9.22h-1.15c.1,1.68.3,8.61-.14,9.11l-21.72,5.81-5.85-40.92-3.67-63.89c-16.29-5.37-33.93-16.28-44.81-29.67-5.65-6.96-31.22-56.39-31.22-63.48v-22.52l1.43,10.69c.74,2.42,1.86,4.5,3.19,6.63-.15-4.15-2.37-7.94-2.39-12.13-.02-4.28,3.88-13.79,3.37-15.92-.31-1.32-4.93-6.09-6.18-8.9-10.5-23.67,7.72-43.44,27.88-52.96,2.6-1.23,18.89-6.62,18.87-7.67-17.9-17.17-29.56-44.82-16.34-68.33,8.5-15.12,33.24-28.68,42.33-7.3,5.1,11.99,2.28,22.65,10.98,34.63,2.49-3.84,7.72-4.47,11.51-6.44,1.41-.73,2.15-2.7,2.35-2.8-2.1-4.8-3.09-11.46-3.45-16.76-2.26-33.33,3.95-68.89,15.58-99.9l-9.82,116.65c.3-.16,1.02.24,1.59,0,1.03-.43.14-2.96,2.35-2.24,9.52,6.32,19.09,15.09,28.75,20.93,19.72,11.92,44.07,20.08,63.5,32.35,3.03,1.91,5.5,2.6,5.43,6.69,18.22-22.05,66.01-71.02,96.52-69.39,3.98.21,1.57,1.28,3.95,2.4l.53-5.83c-43.01-41.26-82.54-86.1-127.01-125.79ZM868.94,852.96c2.98-9.03,17.52-.85,20.3-5.36l12.67-89.85-1.08-2.38c-3.38-2.36-16.71,3.03-17.36-6.93-.98-15.01,19.64-7.74,28.21-7.39,5.54.23,27.69-1.31,30.38,1.38,2.38,2.38,2.13,9.5-.78,11.95-5.6,4.72-15.87-2.74-19.17,6.24-3.13,8.5-4.93,26.88-6.17,36.56-.98,7.65-5.75,49.84-3.12,53.61l16.85,2.78.56,11.01c-3.01,5.11-26.34.38-32.36,0-9.86-.62-34.36,4.85-28.92-11.63ZM847.05,1050.53l-1.85,14.88-7.97.13,2.33-34.64,8.08-.02v12.71c6.09-5.4,7-13.92,17.31-11.54.76,5.22-9.43,11.18-9,15.41l10.15,19.23c-12.91,2.74-12.36-8.84-19.06-16.16ZM891.6,1067.33c-3.61,2.52-7.53-1.37-8.74-1.37-.74,0-2.06,1.64-3.5,1.82-17.31,2.15-10.51-17.05-10.94-27.66h8.09v19.06c11.07,7.97,7.66-11.29,9.24-17.91l7.01.51,1.18,4.69c-1.7,3.72-.31,19.45-2.34,20.86ZM905.22,1067.11c-.81,2.63-6.14,2.63-7.42.81l.64-34.72h8.1l-1.32,33.91ZM927.33,1050.52l-4.77.67-1.02,12.04h4.64c-.1,1.29.26,2.82,0,4.03-.69,3.12-2.14,3.1-5.18,2.97-11.28-.48-6.49-12.01-7.44-19.21-.17-1.31-7.16-7.69.94-7.5l.12-5.72h8.1s0,6.94,0,6.94c4.95-2.65,4.9,1.77,4.62,5.77ZM956.19,1069.58c-1.1,3.55-7.59.74-9.82.81-5.37.15-11.69,3.59-14.71-3.99-2.8-7.01,1.17-14.44.27-21.65h8.1c1.66,5.21-4.01,19.95,3.04,20.45,7.41.53,4.46-14.33,5.03-19.3h8.09v23.68ZM953.53,906.38c-4.7,1.42-5.78,16.71-6.43,21.29-3.19,22.5-2.77,50.75-7.58,72.11-3.07,13.66-20.31,13.26-26.28,3.04-7.4-12.65-15.32-39.63-20.58-54.48-4.24-11.96-8.9-23.98-11.54-36.39l-2.29,13.28-5.77,58.78c.88,9.76,17.92,4.34,19.59,15.22,1.92,12.54-13.48,5.45-20.14,5.06-6.6-.38-14.18-.1-20.88,0-6.85.1-18.47,3.87-17.93-8.59.58-13.6,16.84-4,20.59-7.81l8.33-82.26c-2.04-9.28-16.29-3.52-18.99-9.87-3.33-7.84,2.88-12.85,10.31-12.72,7.83.14,24.13,2.32,32.28,3.61,2.07.33,4.22.79,5.82,2.27l30.68,87.7c2.37-1.33,2.9-7.28,3.31-9.95,2.76-18.18,2.82-36.93,4.7-55.21-1.84-12.27-20.39-2.42-21.86-14.04-1.92-15.23,14.32-8.77,22.44-8.51,7.95.26,32.9-2.07,37.63,2.79,3.5,3.6,2.81,9.76-1.11,12.84-4.43,3.49-9.65.46-14.3,1.87ZM977.05,1054.63c-14.69-1.56-1.22,22.95-15.73,16.75l.64-25.48c3.56,0,7.81-1.19,8.11,3.47l8.06-2.32-1.09,7.58ZM1005.85,1063.22h-18.48l3.08,4.49c3.96.33,7.21-1.28,11.34-1.06,1.56.09,3.56-.74,2.88,1.74-2.58,9.42-25.77,9.04-25.42-6.85.46-21.22,30.46-19.32,26.6,1.68ZM1030.05,1067.21c3.49-2.69.47-7.21,10.45-5.14,1.54,14.5-19.13,18.05-27.78,9.87-5.75-5.44-5.8-15.93-3.17-22.91,5.46-14.46,30.72-13.88,32.09,2.64-7.14,3.09-11.18-5.72-15.58-5.69-14.78.11-9.32,31.49,3.98,21.22ZM1051.5,1075.96c-1.49,2.28-5.17.05-7.39-.17l1.18-23.38,1.73-1.73,7.35-.17-2.86,25.44ZM1054.36,1048.22h-8.1v-6.94h8.1v6.94ZM1074,1057.46h-5.79s-.07,13.22-.07,13.22l3.41.71.14,5.7c-20.94,2.3-9.32-10.77-11.5-18.83-.37-1.36-5.26-1.57-2.13-7.58l3.32-.79-.09-5.15h8.1s-.02,6.94-.02,6.94h4.64s0,5.77,0,5.77ZM1077.39,1084.58c-.58-5.9,6.9-2.49,6.99-6.85l-6.91-26.05h9.22s2.33,15,2.33,15c3.65-2.08,4.14-12.81,6.89-14.45,1.89-1.12,4.8-.44,6.95-.55.03.93.08,1.88-.05,2.82-.4,2.84-10.32,25.87-12.14,28.29-2.89,3.84-12.7,7.72-13.28,1.8ZM1101.02,1079.5c-5.54-4.41,1.99-13.25,7.33-7.91,4.64,4.63-1.73,12.36-7.33,7.91ZM1109.18,910.74c-4.33,5.05-14.26-.12-19.11,3.99-9.75,16.05-34.7,37.09-40.57,54.13-1.59,4.61-5.12,29.01-.19,30.7,9.68.76,20.77-3.51,17.5,10.88-2.3,10.15-22.4,3.49-30.3,3.08-8.92-.47-19.96,1.65-27.62,1.16-6.8-.44-10.03-5.26-8.55-11.84,2.58-11.47,18.14-.73,22.21-6.67,2.74-4.01,3.73-26.35,2.69-31.43-.91-4.44-24.33-45.58-28.11-50.42-7.24-9.26-10.85-3.44-16.64-7.61-6-4.32-3.44-12.17,2.89-14.38l51.69,1.37c14.09,8.18.32,19.45-11.87,15.93-1.53,1.47,14.09,33.18,16.06,37.66.48,1.1-.67,2.02,1.82,1.6,3.53-7.53,23.66-27.92,24.82-34.16.17-.89.24-1.83-.07-2.7-1.75-2.61-16.57,2.26-14.89-10.96,1.53-12.09,18.49-5.54,25.91-5.25,6.58.25,27.2-1.41,31.3,1.04,3.93,2.35,3.81,10.67,1.05,13.89Z"/>
      </g>
      <g>
        <polygon class="cls-14" points="1037.43 801.12 1037.12 801.4 1033.66 804.55 1030.62 807.3 1023.37 813.89 1023.06 814.17 1026.48 817.95 1031.45 823.41 1034.39 826.65 1036.11 828.55 1038.03 826.81 1041.28 823.86 1046.72 818.92 1050.49 815.49 1050.21 815.18 1043.71 808.03 1040.86 804.89 1037.71 801.43 1037.43 801.12"/>
        <path class="cls-14" d="M1053.24,799.89c-3.61-3.97-9.75-4.26-13.72-.66l13.06,14.37c3.97-3.61,4.26-9.75.66-13.72"/>
        <polygon class="cls-14" points="1002.2 795.19 998.64 795.02 998.41 799.85 998.27 802.78 997.91 810.31 997.77 813.24 997.53 818.21 1005.34 818.58 1005.77 809.55 1006.14 801.81 1006.45 795.4 1005.52 795.35 1002.2 795.19"/>
        <path class="cls-14" d="M992.57,806.28c-.08,1.76.97,3.32,2.52,3.94l.37-7.63c-1.6.48-2.8,1.92-2.88,3.68"/>
        <path class="cls-14" d="M1054.63,820.06l-2.25-2.47-6.06,5.5-3.87,3.51-5.5,5c-.57.52-1.45.47-1.97-.09l-4.98-5.48-3.49-3.84-5.55-6.11-2.53,2.3-2.26,2.06-2.61,2.37c4.59,7.49,12.68,12.66,22.12,13.12,9.48.46,18.06-3.95,23.34-11.02l-2.34-2.58-2.06-2.26Z"/>
        <path class="cls-14" d="M1078.94,806.6l-.37,7.63c1.6-.47,2.8-1.92,2.88-3.68s-.97-3.31-2.52-3.94"/>
        <path class="cls-14" d="M1021.82,798.38c-3.97,3.61-4.26,9.75-.66,13.72l7.56-6.87,6.81-6.19c-3.61-3.97-9.75-4.26-13.72-.66"/>
        <path class="cls-14" d="M1100.78,758.25c-16.09-17.72-43.5-19.03-61.22-2.94h0s0,0,0,0c-16.09-17.72-43.5-19.03-61.22-2.94-17.72,16.09-19.03,43.5-2.94,61.22l58.28,64.16,64.16-58.28c17.72-16.09,19.03-43.5,2.94-61.22M1078.43,817.15l-.31,6.37c-.04.77-.69,1.36-1.46,1.32l-10.67-.51c-.77-.04-1.36-.69-1.32-1.46l.11-2.32c-4.87,11.22-16.3,18.81-29.24,18.19-12.94-.62-23.59-9.28-27.36-20.91l-.11,2.32c-.04.77-.69,1.36-1.45,1.32l-10.67-.51c-.77-.04-1.36-.69-1.32-1.46l.31-6.37c-3.12-.77-5.35-3.66-5.19-6.99s2.66-5.99,5.84-6.46l.3-6.22c.04-.77.69-1.36,1.46-1.32l5.13.25c2.34-15.22,18.08-26.49,36.54-25.6,18.46.89,33.04,13.61,33.92,28.99l5.13.25c.77.04,1.36.69,1.32,1.46l-.3,6.22c3.11.78,5.35,3.66,5.19,6.99-.16,3.33-2.66,5.99-5.84,6.46"/>
        <polygon class="cls-14" points="1069.62 798.43 1068.68 798.38 1068.38 804.79 1068 812.54 1067.57 821.57 1075.38 821.95 1075.62 816.98 1075.76 814.04 1076.12 806.52 1076.26 803.58 1076.49 798.76 1072.94 798.59 1069.62 798.43"/>
        <path class="cls-14" d="M1038.32,781.05c-15.15-.73-28.02,10.96-28.75,26.11-.04.84-.04,1.68,0,2.51.09,2.1.42,4.15.96,6.11.43,1.54.98,3.03,1.66,4.45l1.65-1.5,2.25-2.05,2.99-2.71c-4.65-5.13-4.27-13.05.85-17.7,5.12-4.65,13.05-4.27,17.7.85,5.12-4.65,13.05-4.27,17.7.85,4.65,5.12,4.27,13.05-.85,17.7l2.66,2.92,2.05,2.25,1.47,1.62c.79-1.32,1.47-2.72,2.01-4.18.73-1.9,1.25-3.91,1.54-5.99.12-.82.2-1.66.24-2.5.73-15.15-10.96-28.02-26.11-28.75"/>
        <path class="cls-14" d="M1038.88,769.6c-16.62-.8-30.81,9.28-33.07,22.95l2.2.11c.77.04,1.36.69,1.32,1.45l-.11,2.33c4.87-11.22,16.3-18.81,29.24-18.19,12.94.62,23.59,9.28,27.36,20.91l.11-2.33c.04-.77.69-1.36,1.46-1.32l2.2.11c-.94-13.82-14.09-25.21-30.71-26.01"/>
      </g>
      <g>
        <rect class="cls-9" x="409.48" y="1236.88" width="1155" height="467" rx="61.5" ry="61.5"/>
        <path class="cls-14" d="M1502.98,1248.37c27.61,0,50,22.39,50,50v344c0,27.61-22.39,50-50,50H470.98c-27.61,0-50-22.39-50-50v-344c0-27.61,22.39-50,50-50h1032M1502.98,1225.37H470.98c-40.25,0-73,32.75-73,73v344c0,40.25,32.75,73,73,73h1032c40.25,0,73-32.75,73-73v-344c0-40.25-32.75-73-73-73h0Z"/>
      </g>
      <text class="cls-15" transform="translate(474.92 1453.88)"><tspan x="0" y="0">Cli</tspan><tspan class="cls-36" x="208.68" y="0">c</tspan><tspan x="296.15" y="0">k He</tspan><tspan class="cls-29" x="660.56" y="0">r</tspan><tspan x="724.49" y="0">e </tspan><tspan class="cls-37" x="874.52" y="0">t</tspan><tspan x="923.31" y="0">o</tspan><tspan x="53.34" y="162.94">Buy a Shi</tspan><tspan class="cls-35" x="797.89" y="162.94">r</tspan><tspan x="869.29" y="162.94">t!</tspan></text>
    </g>
  </g>
</svg>